<svg xmlns="http://www.w3.org/2000/svg" xmlns:xlink="http://www.w3.org/1999/xlink" width="240" height="85" viewBox="0 0 240 85">
  <defs>
    <clipPath id="logo-white-a">
      <polygon points="0 0 0 0 0 0.01 0 85 0.01 85 57 85 57 85 57 0 56.99 0 0 0" style="fill: none"/>
    </clipPath>
    <linearGradient id="logo-white-b" x1="-1265.5186" y1="373.6329" x2="-1264.5226" y2="373.6329" gradientTransform="matrix(-21.4865, 0.0077, 0.0077, 21.4865, -27144.5297, -7976.073)" gradientUnits="userSpaceOnUse">
      <stop offset="0" stop-color="#f15a29"/>
      <stop offset="1" stop-color="#fbb040"/>
    </linearGradient>
    <clipPath id="logo-white-c">
      <path d="M35.7175,44.3171s1.8993,1.4238,1.6694,1.7922,1.45.9957,1.8593,1.3043a4.0657,4.0657,0,0,1,.77.9957s1.9393-4.2316,1.4594-4.64a1.2424,1.2424,0,0,0-.6-.09,43.5549,43.5549,0,0,0-5.1581.687" style="fill: none"/>
    </clipPath>
    <linearGradient id="logo-white-d" x1="-1069.561" y1="585.8844" x2="-1068.5637" y2="585.8844" gradientTransform="matrix(0.8774, 2.7116, 2.7116, -0.8774, -611.3299, 3460.5115)" gradientUnits="userSpaceOnUse">
      <stop offset="0" stop-color="#fff"/>
      <stop offset="1" stop-color="#fbb040"/>
    </linearGradient>
    <clipPath id="logo-white-e">
      <rect width="57" height="85" style="fill: none"/>
    </clipPath>
    <clipPath id="logo-white-f">
      <path d="M12.1657,14.3973c-.31.3784-3.8986,4.9784,1.3,8.4532a12.5481,12.5481,0,0,0,3.5287-.8065l-1.7494-.5476,1.4095-.677s-2.5291-3.9827-2.4291-4.71L12.1757,14.367h0" style="fill: none"/>
    </clipPath>
    <linearGradient id="logo-white-g" x1="-1172.703" y1="469.3455" x2="-1171.706" y2="469.3455" gradientTransform="matrix(1.4858, 5.202, 5.202, -1.4858, -686.3992, 6816.7534)" gradientUnits="userSpaceOnUse">
      <stop offset="0" stop-color="#fff"/>
      <stop offset="0.66" stop-color="#f15a29"/>
      <stop offset="1" stop-color="#f15a29"/>
    </linearGradient>
    <clipPath id="logo-white-h">
      <path d="M11.506,26.3254c0,3.4649,5.1581,19.077,7.1075,23.1592s4.7483,9.409,12.5656,11.6692a35.9561,35.9561,0,0,1,3.1189,2.1208S29.75,51.1971,36.2973,44.7253C31.7289,43.2816,29.3,41.5591,29.07,40.6331s-5.9979-5.3069-6.8176-7.7861-6.1279-11.58-5.638-12.0276-.37-.5974-.37-.5974S11.5359,22.9,11.506,26.3254" style="fill: none"/>
    </clipPath>
    <linearGradient id="logo-white-i" x1="-1301.9812" y1="441.2408" x2="-1300.9825" y2="441.2408" gradientTransform="matrix(-4.6693, 6.9225, 6.9225, 4.6693, -9106.9649, 6990.0501)" gradientUnits="userSpaceOnUse">
      <stop offset="0" stop-color="#f15a29"/>
      <stop offset="0.59" stop-color="#fbb040"/>
      <stop offset="1" stop-color="#fff"/>
    </linearGradient>
    <clipPath id="logo-white-j">
      <polygon points="27.52 60.248 34.298 63.434 33.348 55.598 27.52 60.248" style="fill: none"/>
    </clipPath>
    <linearGradient id="logo-white-k" x1="-1582.3018" y1="426.5485" x2="-1581.3018" y2="426.5485" gradientTransform="matrix(-0.0009, -2.93, -2.93, 0.0009, 1279.3197, -4578.6596)" gradientUnits="userSpaceOnUse">
      <stop offset="0" stop-color="#fbb040"/>
      <stop offset="1" stop-color="#fff"/>
    </linearGradient>
    <clipPath id="logo-white-l">
      <path d="M31.5889,38.3331c0,1.9018,1.9993,3.4351,4.3685,3.4351s4.3684-1.5333,4.3684-3.4351-1.9993-3.435-4.3684-3.435-4.3685,1.5333-4.3685,3.435" style="fill: none"/>
    </clipPath>
    <linearGradient id="logo-white-m" x1="-1147.4505" y1="502.0059" x2="-1146.4433" y2="502.0059" gradientTransform="matrix(1.1974, 4.1924, 4.1924, -1.1974, -696.4398, 5443.8107)" gradientUnits="userSpaceOnUse">
      <stop offset="0" stop-color="#f15a29"/>
      <stop offset="0.24" stop-color="#f15a29"/>
      <stop offset="1" stop-color="#fbb040"/>
    </linearGradient>
    <clipPath id="logo-white-o">
      <path d="M35.0677,33.4942c-3.7587,1.1649,4.5284,3.1563,4.5284,3.1563l1.2795,5.1675,1.4595,2.5489h.31c.88-1.2347,2.4992-4.829,1-6.5714-1.34-1.5134-3.9486-4.48-7.0675-4.48a4.8058,4.8058,0,0,0-1.4695.229" style="fill: none"/>
    </clipPath>
    <clipPath id="logo-white-p">
      <polygon points="30.809 66.54 30.939 68.98 28.01 71.001 29.82 80.709 42.645 80.709 49.723 81.057 50.722 80.848 56.28 80.34 56.45 73.291 52.961 71.439 46.294 66.431 30.809 66.54" style="fill: none"/>
    </clipPath>
    <clipPath id="logo-white-q">
      <path d="M38.9863,36.0431a5.0112,5.0112,0,0,0-1.08-.5576Zm-6.9975-3.674a10.3624,10.3624,0,0,0-2.6191.5775s-2.4392,2.6086-2.5291,4.58A9.8364,9.8364,0,0,0,28.84,38.97s.66,3.0567,1.6294,3.7337,3.6487,1.9117,3.9986,1.7723a2.6492,2.6492,0,0,1,.84.07,13.1232,13.1232,0,0,0,6.1578-.8264c.37-2.7978-1.32-7.0692-1.32-7.0692l-1.16-.6077a2.7565,2.7565,0,0,1,1.3,2.21c0,1.7225-1.9993,3.1164-4.4085,3.1164s-4.4085-1.3939-4.4085-3.1164,1.9993-3.1164,4.4085-3.1164a6.0172,6.0172,0,0,1,1.9993.3484l-1.07-.5575,2.849-.707s.14-.1493-.37-.5177-1.5794-1.7623-2.5791-1.7823a25.5548,25.5548,0,0,0-2.6491,0,3.42,3.42,0,0,1-1.7094,0l.48.3684a5.3552,5.3552,0,0,1-1.16-.4281h0c-.05,0,.2.4182.35.5078" style="fill: none"/>
    </clipPath>
    <linearGradient id="logo-white-r" x1="-1217.0896" y1="256.4013" x2="-1216.0893" y2="256.4013" gradientTransform="matrix(8.4, -4.8107, -4.8107, -8.4, 11484.5777, -3659.1147)" gradientUnits="userSpaceOnUse">
      <stop offset="0" stop-color="#fff"/>
      <stop offset="0.39" stop-color="#fff"/>
      <stop offset="1" stop-color="#f68b2a"/>
    </linearGradient>
    <clipPath id="logo-white-t">
      <path d="M56.98,50.8487h0v.02M42.9849,46.8859l1.15,4.49s1.28-.7866,2.0893,2.987c.36,1.6926-.41,2.7679-1.19,4.5s-.61,4.1021.38,7.0692.6,2.6385.6,2.6385l1.63,1.7823L56.98,71.8074h0V64.41c-.14-5.0978-.25-11.3306,0-13.5609a12.04,12.04,0,0,1-8.1172,1.4038c-3.4987-.8861-5.8079-5.2869-5.8779-5.3467Z" style="fill: none"/>
    </clipPath>
    <linearGradient id="logo-white-u" x1="-1301.1462" y1="279.3188" x2="-1300.1404" y2="279.3188" gradientTransform="matrix(-0.0031, -16.25, -16.25, 0.0031, 4584.9823, -21074.7898)" gradientUnits="userSpaceOnUse">
      <stop offset="0" stop-color="#f15a29"/>
      <stop offset="0.24" stop-color="#f15a29"/>
      <stop offset="0.75" stop-color="#f68a34"/>
      <stop offset="1" stop-color="#fbb040"/>
    </linearGradient>
    <clipPath id="logo-white-v">
      <rect width="56.98" height="85" style="fill: none"/>
    </clipPath>
    <clipPath id="logo-white-w">
      <path d="M31.7189,33.6635s-2.6391,5.038,1.09,7.1588,5.4081.7965,6.9975-.9957,1.38-6.77,1.38-6.77Z" style="fill: none"/>
    </clipPath>
  </defs>
  <g>
    <path d="M68.24,32.857V27.6c0-.7966-.25-1.2446-1.08-1.4139a5.0182,5.0182,0,0,0-1-.08c-.27,0-.42-.05-.42-.2191s.17-.229.55-.229c1.32,0,2.89.08,3.41.08.85,0,2.74-.08,3.52-.08a7.9076,7.9076,0,0,1,4.58,1.0753,4.2758,4.2758,0,0,1,1.7,3.3953c0,1.8419-.77,3.5246-3.29,5.5657,2.22,2.7779,3.94,4.9784,5.41,6.5216a5.0036,5.0036,0,0,0,2.79,1.6927,3.944,3.944,0,0,0,.7.07c.2,0,.3.08.3.1991s-.18.2489-.48.2489H82.56a5.0887,5.0887,0,0,1-2.67-.468c-1.07-.5774-2-1.7424-3.42-3.654-1-1.3641-2.14-3.0468-2.47-3.4251a.5011.5011,0,0,0-.44-.1693l-2.17-.05c-.13,0-.2.05-.2.1992v.3484c0,2.31,0,4.2714.12,5.3069.08.7269.23,1.2645,1,1.3641a11.7205,11.7205,0,0,0,1.23.1c.19,0,.3.08.3.1991s-.18.2489-.5.2489c-1.45,0-3.29-.07-3.67-.07s-2,.07-3,.07c-.32,0-.5-.07-.5-.2489s.1-.1991.4-.1991a4.1792,4.1792,0,0,0,.9-.1c.5-.1.62-.6372.72-1.3641.12-.9956.12-2.987.12-5.287Zm3,1.9913c0,.2788,0,.3784.22.4481a6.45,6.45,0,0,0,1.9.2489,2.5386,2.5386,0,0,0,1.77-.4182,4.3714,4.3714,0,0,0,1.47-3.7238c0-3.5247-2.35-4.55-3.82-4.55a5.7632,5.7632,0,0,0-1.32.1c-.17.06-.22.1493-.22.3485Zm16.83,3.0766c-.12,0-.18,0-.23.1991L86.5,41.6786a4.8028,4.8028,0,0,0-.38,1.5134c0,.448.23.7667,1,.7667h.38c.29,0,.37.05.37.1991s-.15.2489-.42.2489c-.8,0-1.87-.07-2.65-.07-.27,0-1.64.07-2.94.07-.32,0-.47-.05-.47-.2489s.1-.1991.3-.1991a6.4224,6.4224,0,0,0,.77,0c1.15-.1494,1.62-.9957,2.12-2.23l6.26-15.642c.3-.7168.44-.9956.7-.9956s.37.219.62.7866c.6,1.364,4.59,11.5,6.18,15.2735,1,2.23,1.67,2.5787,2.2,2.6982a5.02,5.02,0,0,0,1,.1c.2,0,.32,0,.32.1991s-.22.2489-1.14.2489-2.72,0-4.71-.05c-.45,0-.75,0-.75-.1992s.1-.1991.35-.219a.4073.4073,0,0,0,.2452-.5212.4.4,0,0,0-.0252-.0563l-2-5.2571a.24.24,0,0,0-.25-.1792ZM93.15,36.69c.13,0,.15-.08.13-.1494L91,30.4076c0-.0995-.05-.219-.13-.219s-.12.1195-.15.219l-2.29,6.1035c0,.0995,0,.1792.1.1792Zm11.38-3.8333V27.6c0-.7966-.3-1.2645-.85-1.394a3.7759,3.7759,0,0,0-.9-.0995c-.25,0-.4-.05-.4-.249s.2-.1991.6-.1991c.95,0,2.52.08,3.24.08s2.1-.08,3-.08c.33,0,.53.05.53.1991s-.15.249-.4.249a4.2832,4.2832,0,0,0-.75.08c-.67.12-.87.5476-.92,1.4139s0,1.4835,0,5.2571v4.3709c0,2.41,0,4.371.1,5.4364.07.677.25,1.1151,1,1.2147a10.2618,10.2618,0,0,0,1.27.1c.27,0,.4.08.4.1991s-.2.2489-.48.2489c-1.64,0-3.21-.07-3.89-.07s-2.14.07-3.14.07c-.32,0-.5-.07-.5-.2489s.1-.1991.4-.1991a4.1037,4.1037,0,0,0,.9-.1c.5-.1.65-.5178.72-1.2346.13-1.0455.13-2.987.13-5.4165Zm12.66,8.1744c0,1.9316.38,2.5788.88,2.758a3.9338,3.9338,0,0,0,1.29.1692c.28,0,.43.05.43.1992s-.23.2489-.58.2489c-1.62,0-2.61-.07-3.09-.07-.22,0-1.39.07-2.69.07-.32,0-.55,0-.55-.2489s.15-.1992.4-.1992a4.4257,4.4257,0,0,0,1.12-.1493c.65-.1991.75-.916.77-3.0766l.23-14.696c0-.4979.07-.8464.32-.8464s.5.3187.93.7667,4.08,4.371,7.72,7.9653c1.7,1.6927,5.07,5.2671,5.49,5.6654H130l-.25-11.1415c0-1.5134-.24-1.9914-.84-2.24a4.1087,4.1087,0,0,0-1.32-.1493c-.3,0-.4-.07-.4-.2191s.27-.229.65-.229c1.29,0,2.49.08,3,.08.28,0,1.22-.08,2.44-.08.33,0,.58,0,.58.229s-.15.2191-.45.2191a2.5723,2.5723,0,0,0-.75.08c-.7.1992-.9.7169-.92,2.1108l-.28,15.6619c0,.5476-.09.7666-.32.7666a1.65,1.65,0,0,1-.85-.5476c-1.57-1.4835-4.76-4.7394-7.35-7.2982s-5.49-5.7848-5.93-6.2528h-.08Zm25.36-3.8234c0,2.39,0,4.2416.13,5.287.07.7269.22,1.2645,1,1.3641a10.5635,10.5635,0,0,0,1.25.0995c.32,0,.42.08.42.1992s-.17.2489-.55.2489c-1.57,0-3.14-.07-3.79-.07s-2.22.07-3.16.07c-.35,0-.53-.05-.53-.2489s.1-.1992.38-.1992a4.0191,4.0191,0,0,0,.89-.0995c.5-.1.63-.6372.73-1.3641.12-.9956.12-2.8974.12-5.287V27.6c0-.7966-.25-1.2446-1.07-1.4139a5.0182,5.0182,0,0,0-1-.08c-.25,0-.43-.05-.43-.1992s.2-.2489.58-.2489h10.15a4.2343,4.2343,0,0,0,1-.1,1.6751,1.6751,0,0,1,.4-.1493.2093.2093,0,0,1,.18.229c0,.1693-.13.468-.2,1.1151,0,.249-.08,1.7126-.13,1.9914s-.07.3485-.25.3485-.22-.13-.25-.3983a2.4281,2.4281,0,0,0-.15-.9459,1.8031,1.8031,0,0,0-1.64-.7467l-3.84-.07c-.15,0-.23.07-.23.3484v6.203c0,.1494,0,.229.18.229h4.31a1.2924,1.2924,0,0,0,1.07-.438c.13-.1494.18-.249.33-.249s.15.07.15.2191-.13.7766-.2,1.5433c0,.4978-.1,1.6428-.1,1.8121s0,.4679-.25.4679-.2-.1692-.2-.3484a2.7381,2.7381,0,0,0-.15-.7667,1.47,1.47,0,0,0-1.27-.8961c-.63-.07-3.27-.07-3.69-.07-.13,0-.18,0-.18.2191Zm9.65-2.18c0-4.2515,2.82-9.7376,10.3-9.7376,6.21,0,10.07,3.6043,10.07,9.29a9.8244,9.8244,0,0,1-9.4038,10.2275l-.0051,0q-.4553.02-.9111-.0022c-7.15,0-10.05-5.3368-10.05-9.7277m16.88.468c0-5.5558-3.21-8.961-7.3-8.961-2.87,0-6.14,1.593-6.14,7.7662,0,5.1675,2.87,9.26,7.66,9.26,1.74,0,5.78-.8364,5.78-8.0151m8.71-2.7381V27.6c0-.7966-.25-1.2446-1.07-1.4139a5.1647,5.1647,0,0,0-1-.08c-.27,0-.42-.05-.42-.2191s.18-.229.55-.229c1.32,0,2.89.08,3.41.08.85,0,2.75-.08,3.52-.08a7.9585,7.9585,0,0,1,4.59,1.0753A4.2648,4.2648,0,0,1,189,30.1089c0,1.842-.77,3.5247-3.29,5.5658,2.22,2.7779,3.94,4.9783,5.41,6.5216a5.0036,5.0036,0,0,0,2.79,1.6927,3.944,3.944,0,0,0,.7.07c.2,0,.3.08.3.1991s-.17.2489-.47.2489H192.1a5.09,5.09,0,0,1-2.67-.468c-1.07-.5775-2-1.7424-3.42-3.6541-1-1.364-2.14-3.0467-2.46-3.425a.531.531,0,0,0-.45-.1693l-2.17-.05c-.13,0-.2.05-.2.1991v.3485c0,2.31,0,4.2714.13,5.3069.07.7269.22,1.2645,1,1.3641a11.3489,11.3489,0,0,0,1.22.0995c.2,0,.3.08.3.1992s-.18.2489-.5.2489c-1.45,0-3.29-.07-3.67-.07s-2,.07-3,.07c-.32,0-.5-.07-.5-.2489s.1-.1992.4-.1992a4.0135,4.0135,0,0,0,.9-.0995c.5-.1.62-.6372.72-1.3641.13-.9956.13-2.987.13-5.287Zm2.94,1.9913c0,.2788.05.3784.23.4481a6.377,6.377,0,0,0,1.89.2489,2.5182,2.5182,0,0,0,1.77-.4182,4.3714,4.3714,0,0,0,1.47-3.7238c0-3.5247-2.34-4.55-3.81-4.55a5.6559,5.6559,0,0,0-1.28.03c-.18.06-.23.1493-.23.3485Zm15.89-1.9913c0-3.7736,0-4.4606-.05-5.2571s-.25-1.2446-1.08-1.4139a5.0182,5.0182,0,0,0-1-.08c-.27,0-.42-.05-.42-.2191s.17-.229.55-.229h9.8a10.04,10.04,0,0,0,1.07-.1493,2.9278,2.9278,0,0,1,.4-.1c.12,0,.15.1.15.229a13.8836,13.8836,0,0,0-.2,1.613,15.8189,15.8189,0,0,1-.13,1.6329.2515.2515,0,0,1-.2223.2775l-.0177.0013c-.17,0-.23-.13-.23-.3485a2.5613,2.5613,0,0,0-.15-.8961c-.17-.4481-.42-.7368-1.67-.8961-.42,0-3-.09-3.54-.09-.12,0-.17.07-.17.2489v6.2727c0,.1792,0,.2788.17.2788h4a1.4871,1.4871,0,0,0,1.19-.3784c.19-.2489.28-.3186.41-.3186s.17.05.17.1991-.1.5476-.2,1.8121c0,.4979-.1,1.4935-.1,1.6628s0,.468-.22.468-.23-.1-.23-.2191a5.22,5.22,0,0,0-.1-.8961c-.12-.4978-.47-.8662-1.39-.9956-.48,0-2.95-.08-3.54-.08-.13,0-.15.1-.15.2489v5.8446c.05,1.7125.45,2.0809,3,2.0809a6.316,6.316,0,0,0,2.34-.2987c.65-.2987.95-.8164,1.12-1.832,0-.2788.1-.3784.28-.3784s.2.1992.2.4481a18.734,18.734,0,0,1-.33,2.758c-.17.6472-.4.6472-1.34.6472-1.87,0-3.24,0-4.32-.08s-1.84-.07-2.59-.07h-1.42c-.6,0-1.22.05-1.72.05-.32,0-.5-.07-.5-.2489s.1-.1992.4-.1992a4.1724,4.1724,0,0,0,.9-.0995c.5-.1.62-.6372.72-1.3641.13-.9956.13-2.987.13-5.287ZM211,44.108c-.4-.1693-.47-.2987-.47-.8463,0-1.3641.1-2.8476.12-3.2459s.1-.6472.3-.6472.25.229.25.4282a5.0793,5.0793,0,0,0,.23,1.2645A3.4291,3.4291,0,0,0,215,43.56a2.9972,2.9972,0,0,0,3.3236-2.6256q.0114-.1008.0164-.2021c0-1.2147-.37-2.36-2.44-3.9827l-1.15-.8961c-2.74-2.1307-3.69-3.8731-3.69-5.8744,0-2.7381,2.3-4.69,5.76-4.69a11.989,11.989,0,0,1,3.32.4182c.22.05.35.1195.35.2987s-.1.9957-.1,2.987c0,.5476-.08.7467-.28.7467s-.25-.1493-.25-.448a2.9792,2.9792,0,0,0-.64-1.6429,3.1861,3.1861,0,0,0-2.72-1.2147c-1.85,0-3,1.0654-3,2.5589,0,1.145.57,1.9913,2.64,3.5744l.7.5178c3,2.26,4.09,3.9826,4.09,6.3324a4.9729,4.9729,0,0,1-2.34,4.3212,7.2352,7.2352,0,0,1-4,.9957A8.5838,8.5838,0,0,1,211,44.108m19.2-17.0757-3.71.1c-1.45.05-2.05.1693-2.42.7169a2.8024,2.8024,0,0,0-.42.8662c-.06.1991-.13.2987-.28.2987s-.22-.1195-.22-.3883.47-2.6584.52-2.8576.15-.4779.3-.4779a5.8318,5.8318,0,0,0,1.07.2987,24.42,24.42,0,0,0,2.49.1294h9.88a11.9594,11.9594,0,0,0,1.72-.1294,6.613,6.613,0,0,1,.67-.1195c.17,0,.2.1494.2.5178,0,.5277-.07,2.24-.07,2.8775,0,.2489-.08.3982-.23.3982s-.25-.12-.27-.4879V28.496c-.05-.6472-.72-1.3442-2.94-1.394l-3.14-.07V37.208c0,2.29,0,4.2416.12,5.3169.08.687.23,1.2346,1,1.3342a10.2627,10.2627,0,0,0,1.27.0995c.27,0,.4.08.4.1992s-.2.2489-.48.2489c-1.64,0-3.21-.07-3.91-.07s-2.15.07-3.14.07c-.33,0-.5-.07-.5-.2489s.1-.1992.4-.1992a4.1724,4.1724,0,0,0,.9-.0995c.49-.1.64-.6472.72-1.3641.12-.9956.12-2.987.12-5.287ZM115.91,49.156l-2.36.06c-.92,0-1.29.1095-1.53.458a1.8772,1.8772,0,0,0-.27.5476.17.17,0,0,1-.1493.1884.1659.1659,0,0,1-.0307.0008c-.1,0-.14-.08-.14-.249s.3-1.6826.33-1.8121.1-.2987.19-.2987a3.7628,3.7628,0,0,0,.68.1892c.46,0,1.07.08,1.59.08h6.27a7.9364,7.9364,0,0,0,1.09-.08,3.2165,3.2165,0,0,1,.43-.08c.11,0,.12.09.12.3285V50.321c0,.1493,0,.2489-.15.2489s-.16-.08-.17-.3186V50.082c0-.4082-.45-.8463-1.86-.8861h-2v6.4618c0,1.4437,0,2.6883.08,3.3654,0,.448.14.7965.62.8562a7.0126,7.0126,0,0,0,.81.06c.17,0,.25.05.25.1294s-.13.1593-.3.1593c-1,0-2-.05-2.49-.05s-1.36.05-2,.05c-.21,0-.32-.05-.32-.1593s.06-.1294.25-.1294a2.69,2.69,0,0,0,.57-.06c.32-.06.42-.4082.46-.8662.08-.6671.08-1.9117.08-3.3554Zm3.44,11.0718h-4.48c-.36,0-.37-.07-.37-.1991s.23-.1693.3-.1693a3.0538,3.0538,0,0,0,.56-.06c.31-.06.39-.4381.43-.8364.08-.6571.08-1.9017.08-3.3454v-6.422l-2.32.07c-.86,0-1.26.09-1.5.4282a2.07,2.07,0,0,0-.26.5376.2167.2167,0,0,1-.204.2287c-.0053,0-.0107,0-.016,0-.15,0-.18-.1493-.18-.2987s.3-1.7025.33-1.822.09-.3385.23-.3385a.522.522,0,0,1,.19.06,1.4159,1.4159,0,0,0,.5.1294c.47.05,1.07.08,1.58.08h6.27a7.6094,7.6094,0,0,0,1.08-.08h.44c.17,0,.17.1892.17.3784v1.8221c0,.209,0,.2887-.19.2887s-.2-.1394-.21-.3485v-.1792c0-.2987-.29-.8065-1.82-.8364l-2-.05v6.422c0,1.4437,0,2.6883.08,3.3654.06.4878.17.7567.58.8064a5.3087,5.3087,0,0,0,.8.07c.25,0,.3.09.3.1693s0,.1991-.34.1991m-2.49-.1294h2.49c.08,0,.25,0,.25-.11s-.13-.08-.21-.08a5.551,5.551,0,0,1-.81-.07c-.52-.07-.61-.4779-.65-.8861-.08-.6771-.08-1.9316-.08-3.3753V49.1062h2c1.6,0,1.88.5974,1.91.9161v.1792c0,.2489,0,.2788.13.2788s.08,0,.1-.2191,0-.6173,0-.9957v-.8264c0-.1593,0-.2887-.08-.2887l-.26.05h-.16a7.97,7.97,0,0,1-1.1.08h-6.27a10.3809,10.3809,0,0,1-1.59-.08,1.4551,1.4551,0,0,1-.52-.1394c-.15-.06-.21-.1693-.3.219,0,.1593-.33,1.5632-.33,1.8022s0,.2091.09.2091.1,0,.14-.1593a1.6894,1.6894,0,0,1,.27-.5676c.26-.3684.67-.438,1.57-.4679l2.41-.07v6.5116c0,1.4438,0,2.6983-.08,3.3554,0,.4282-.14.8364-.5.9061a2.2636,2.2636,0,0,1-.58.07c-.21,0-.21.06-.21.08s0,.11.28.11h1.99m14.59-7.22V49.4946c0-.5078-.16-.7866-.68-.8962a3.2561,3.2561,0,0,0-.61-.05c-.18,0-.28,0-.28-.1394s.12-.1394.35-.1394c.84,0,1.84.05,2.17.05.54,0,1.74-.05,2.23-.05a5.0684,5.0684,0,0,1,2.92.677,2.744,2.744,0,0,1,1.08,2.1606c0,1.165-.5,2.24-2.09,3.5346,1.4,1.7624,2.49,3.1663,3.43,4.142a3.2024,3.2024,0,0,0,1.77,1.0753,2.6622,2.6622,0,0,0,.45,0c.12,0,.19.05.19.13s-.11.1593-.3.1593H140.5a3.2423,3.2423,0,0,1-1.69-.2987,7.75,7.75,0,0,1-2.17-2.32c-.63-.8662-1.36-1.9914-1.57-2.18a.3309.3309,0,0,0-.28-.1h-1.38a.12.12,0,0,0-.13.1091.1147.1147,0,0,0,0,.02v.2191c0,1.4636,0,2.7082.08,3.3753,0,.458.14.8065.62.8662a7.622,7.622,0,0,0,.78.06c.12,0,.18.05.18.1294s-.11.1593-.31.1593c-.92,0-2.09-.05-2.33-.05s-1.3.05-1.93.05c-.21,0-.32-.05-.32-.1593s.07-.1294.26-.1294a2.7724,2.7724,0,0,0,.57-.06c.31-.06.39-.4082.46-.8662.07-.6671.07-1.9117.07-3.3554Zm1.87,1.2446c0,.1692,0,.2389.15.2887a4.1666,4.1666,0,0,0,1.2.1494,1.5552,1.5552,0,0,0,1.12-.2689,2.7324,2.7324,0,0,0,.94-2.36c0-2.24-1.49-2.8874-2.43-2.8874a3.1836,3.1836,0,0,0-.83.07c-.12,0-.15.09-.15.219ZM142,60.2278h-1.51a3.3233,3.3233,0,0,1-1.71-.2987,7.56,7.56,0,0,1-2.19-2.33l-.8-1.1251c-.35-.4979-.64-.916-.76-1.0554a.32.32,0,0,0-.25-.09H133.4c-.06,0-.08,0-.08.08v.2191c0,1.4536,0,2.7082.08,3.3653.05.4978.16.7766.58.8364a7.4589,7.4589,0,0,0,.77.06c.21,0,.23.1294.23.1693a.364.364,0,0,1-.36.1991h-4.26c-.09,0-.36,0-.36-.1991s.22-.1693.3-.1693a3.1819,3.1819,0,0,0,.56-.06c.27-.06.35-.3286.42-.8364s.08-1.9017.08-3.3454V49.5045c0-.4978-.13-.7567-.65-.8662a3.4521,3.4521,0,0,0-.61,0c-.1,0-.31,0-.31-.1892s.2-.1892.39-.1892h4.41a5.159,5.159,0,0,1,2.93.687,2.7739,2.7739,0,0,1,1.1,2.2c0,1.2943-.62,2.35-2.07,3.5346l.53.6671c1.15,1.4536,2.07,2.5987,2.87,3.445a3.2224,3.2224,0,0,0,1.73,1.0554,3.1813,3.1813,0,0,0,.46,0c.21,0,.23.1294.23.1692,0,.1992-.23.1992-.34.1992m-8.6-4.9784h1.38a.3907.3907,0,0,1,.32.13c.12.1294.42.5576.76,1.0554s.54.7567.81,1.1151a7.4291,7.4291,0,0,0,2.15,2.31,3.2722,3.2722,0,0,0,1.67.2887H142c.23,0,.25,0,.25-.1095s0-.08-.14-.08a2.9248,2.9248,0,0,1-.46-.05,3.1935,3.1935,0,0,1-1.79-1.0853c-.81-.8463-1.72-1.9913-2.88-3.445l-.59-.7368h0c1.45-1.1749,2.07-2.22,2.07-3.4948a2.6346,2.6346,0,0,0-1.06-2.1208,5.0176,5.0176,0,0,0-2.88-.677h-4.41c-.28,0-.3,0-.3.1s0,.1.22.1a2.8268,2.8268,0,0,1,.63.05c.57.12.69.4082.72.9359s0,.9359,0,3.3455v2.7779c0,1.4437,0,2.6982-.08,3.3554-.06.458-.14.8363-.5.906a2.3554,2.3554,0,0,1-.57.07c-.21,0-.21.06-.21.08s0,.11.27.11h4.26c.27,0,.27-.08.27-.11s-.05-.08-.14-.08a3.6555,3.6555,0,0,1-.79-.07c-.52-.07-.61-.468-.65-.906-.08-.6572-.08-1.9217-.08-3.3754v-.219a.15.15,0,0,1,.1269-.1693.1556.1556,0,0,1,.0431,0m1.22-.6372a4.2165,4.2165,0,0,1-1.22-.1593c-.14-.06-.17-.1593-.17-.3286v-4.819a.2389.2389,0,0,1,.17-.2688,3.85,3.85,0,0,1,.85-.06c.92,0,2.47.6174,2.47,2.9273a2.7819,2.7819,0,0,1-.95,2.4,1.6154,1.6154,0,0,1-1.15.2787m-.37-5.5159a3.4646,3.4646,0,0,0-.82.06c-.09,0-.11.06-.11.1792v4.7892c0,.1692,0,.2091.11.2389a4.0181,4.0181,0,0,0,1.19.1593,1.585,1.585,0,0,0,1.1-.2588,2.6919,2.6919,0,0,0,.91-2.33c0-2.24-1.49-2.8376-2.38-2.8376M148.92,52.84V49.4946c0-.5078-.15-.7866-.68-.8962a3.2947,3.2947,0,0,0-.62-.05c-.17,0-.27,0-.27-.1394s.12-.1394.35-.1394c.84,0,1.84.05,2.32.05s1.37-.05,1.94-.05c.24,0,.35,0,.35.1394s-.09.1394-.25.1394a2.5044,2.5044,0,0,0-.46.05c-.43.08-.55.3485-.59.8962s0,.9956,0,3.3454v2.21c0,2.28.46,3.2458,1.24,3.8731a2.9189,2.9189,0,0,0,2,.6472,3.1073,3.1073,0,0,0,2.18-.8463c.87-.8762.92-2.29.92-3.913V49.4746c0-.5078-.16-.7865-.68-.8961a3.2809,3.2809,0,0,0-.57-.05c-.18,0-.27,0-.27-.1394s.11-.1394.33-.1394c.81,0,1.8.05,1.82.05.19,0,1.19-.05,1.81-.05.22,0,.33,0,.33.1394s-.1.1394-.29.1394a2.5953,2.5953,0,0,0-.46.05c-.42.08-.55.3485-.58.8961s0,.9957,0,3.3455v1.6827c0,1.7523-.18,3.6142-1.51,4.7493a4.7523,4.7523,0,0,1-3.29,1.135,5.1457,5.1457,0,0,1-3.52-1.0852c-.8-.7269-1.4-1.8918-1.4-4.1818Zm4.92,7.6069a5.1949,5.1949,0,0,1-3.55-1.0953c-1-.8761-1.42-2.21-1.42-4.2116V49.5045c0-.4978-.13-.7567-.65-.8563a2.6367,2.6367,0,0,0-.61,0c-.1,0-.31,0-.31-.1891s.21-.1892.39-.1892h4.26c.19,0,.4,0,.4.1892s-.21.1891-.3.1891a1.7834,1.7834,0,0,0-.45,0c-.38.07-.52.2788-.55.8563s0,.9359,0,3.3355v2.21c0,2.4991.58,3.3255,1.21,3.8432a3.0091,3.0091,0,0,0,2,.6373,3.1174,3.1174,0,0,0,2.15-.8463c.84-.8265.9-2.19.9-3.8732V49.4846c0-.4978-.13-.7567-.64-.8563a3.01,3.01,0,0,0-.56,0c-.1,0-.32,0-.32-.1891s.25-.1892.38-.1892h3.63c.13,0,.37,0,.37.1892s-.21.1891-.33.1891a2.3989,2.3989,0,0,0-.45,0c-.38.07-.52.2788-.55.8563s0,.9359,0,3.3355v1.6827c0,1.8121-.18,3.6441-1.52,4.7791A4.8132,4.8132,0,0,1,154,60.427M147.82,48.29c-.28,0-.3,0-.3.1s0,.0995.22.0995a3.5838,3.5838,0,0,1,.63.05c.57.12.69.4082.72.9359s0,.936,0,3.3455v2.3c0,1.9913.44,3.2857,1.39,4.1419a5.0645,5.0645,0,0,0,3.49,1.0853,4.713,4.713,0,0,0,3.26-1.1251c1.31-1.1251,1.49-2.9272,1.49-4.72V49.4946c0-.5078.14-.8464.63-.936a2.4107,2.4107,0,0,1,.46-.05c.22,0,.24,0,.24-.0995s0-.1-.28-.1h-3.63c-.32,0-.29,0-.29.1s0,.0995.23.0995a3.3258,3.3258,0,0,1,.58.05c.56.12.68.4082.71.936s0,.9359,0,3.3454v1.9913c0,1.7026-.07,3.0766-.93,3.9827a3.1779,3.1779,0,0,1-2.21.8563,3.0089,3.0089,0,0,1-2-.6472c-.89-.7269-1.25-1.8619-1.25-3.913V49.4946c0-.5078.14-.8464.62-.936a2.516,2.516,0,0,1,.47-.05c.19,0,.21,0,.21-.0995s0-.1-.31-.1h-4.26m20.84,11.6891c-.25-.11-.3-.1892-.3-.5376,0-.8663.06-1.8121.08-2.0611s.06-.4181.19-.4181.16.1493.16.2688a3.2583,3.2583,0,0,0,.14.8065,2.1892,2.1892,0,0,0,2.27,1.593,1.9278,1.9278,0,0,0,2.114-1.719q.0037-.0365.006-.0732c0-.7766-.24-1.5034-1.56-2.5289l-.72-.5676c-1.74-1.3541-2.35-2.4593-2.35-3.7337,0-1.7325,1.46-2.987,3.66-2.987a7.8031,7.8031,0,0,1,2.11.2688c.14,0,.22.08.22.1892s-.07.6571-.07,1.8918c0,.3484,0,.4679-.17.4679s-.16-.1-.16-.2788a1.9066,1.9066,0,0,0-.41-1.0454A2.0038,2.0038,0,0,0,172,48.787a1.6587,1.6587,0,0,0-1.8654,1.4191,1.6363,1.6363,0,0,0-.0146.2039c0,.7168.37,1.2744,1.68,2.27l.44.3286c1.92,1.4337,2.6,2.519,2.6,3.9826a3.1724,3.1724,0,0,1-1.46,2.7481,4.5647,4.5647,0,0,1-2.52.6471,5.53,5.53,0,0,1-2.31-.4082m2.31.4779a5.4914,5.4914,0,0,1-2.32-.4181c-.28-.12-.33-.2191-.33-.5775a15.0472,15.0472,0,0,1,.07-1.9914v-.09c0-.1891.05-.448.23-.448s.2.229.2.3086a3.5094,3.5094,0,0,0,.14.7966A2.17,2.17,0,0,0,171.08,59.6a1.8878,1.8878,0,0,0,2.0643-1.69c.0024-.0239.0043-.0478.0057-.0719,0-.7965-.25-1.4835-1.53-2.4792l-.72-.5974c-1.68-1.3143-2.36-2.4-2.36-3.7736,0-1.7822,1.52-2.9869,3.7-2.9869a8.0339,8.0339,0,0,1,2.12.2688.238.238,0,0,1,.25.2257q0,.0066,0,.0132V50.4c0,.3186,0,.5178-.22.5178s-.2-.249-.2-.3286a1.8579,1.8579,0,0,0-.41-.9957A1.9333,1.9333,0,0,0,172,48.787c-1.12,0-1.84.6173-1.84,1.5831,0,.7368.4,1.2844,1.66,2.23l.44.3286c1.9,1.4338,2.61,2.529,2.61,4.0524a3.2324,3.2324,0,0,1-1.5,2.7878,4.6447,4.6447,0,0,1-2.55.6572m-2.34-3.4251c-.08,0-.13.12-.15.3684v.08c0,.3286-.08,1.1948-.08,1.9914,0,.3385.05.3982.28.4978a5.51,5.51,0,0,0,2.29.4082,4.4844,4.4844,0,0,0,2.49-.6472,3.153,3.153,0,0,0,1.48-2.7082c0-1.4935-.7-2.5688-2.58-3.9826l-.45-.3286c-1.28-.9957-1.69-1.5333-1.69-2.3a1.7169,1.7169,0,0,1,1.7664-1.6651q.0822.0022.1636.0123a2.0639,2.0639,0,0,1,1.76.7866,1.9866,1.9866,0,0,1,.42,1.0753c0,.2389.08.2389.11.2389s.13,0,.13-.4281V48.5088c0-.06,0-.11-.18-.1493a7.541,7.541,0,0,0-2.1-.2688c-2.13,0-3.61,1.2047-3.61,2.987,0,1.3441.67,2.41,2.32,3.7038l.73.5676c1.3.9956,1.57,1.7523,1.57,2.5489a1.9968,1.9968,0,0,1-2.06,1.842,2.2292,2.2292,0,0,1-2.31-1.623,3.1647,3.1647,0,0,1-.15-.8164c0-.1792,0-.2191-.11-.2191m18.56-7.9255-2.36.06c-.92,0-1.3.1095-1.54.458a2.6251,2.6251,0,0,0-.27.5476c0,.1294-.07.1892-.17.1892s-.14-.08-.14-.249.3-1.6826.33-1.8121.1-.2987.19-.2987a3.7674,3.7674,0,0,0,.68.1892q.7876.0795,1.58.08h6.27a7.9715,7.9715,0,0,0,1.1-.08,3.1838,3.1838,0,0,1,.42-.08c.12,0,.13.09.13.3285s-.05,1.4238-.05,1.8321c0,.1493,0,.2489-.14.2489s-.16-.08-.17-.3186V50.082c0-.4082-.46-.8463-1.87-.8861h-2v6.4618c0,1.4437,0,2.6883.08,3.3654,0,.448.14.7965.61.8562a7.1934,7.1934,0,0,0,.81.06c.18,0,.26.05.26.1294s-.13.1593-.31.1593c-1,0-2-.05-2.48-.05s-1.36.05-2,.05c-.2,0-.31-.05-.31-.1593s.06-.1294.25-.1294a2.69,2.69,0,0,0,.57-.06c.32-.06.41-.4082.46-.8662.08-.6671.08-1.9117.08-3.3554Zm3.43,11.0718h-4.48c-.08,0-.36,0-.36-.1991s.23-.1693.3-.1693a3.0538,3.0538,0,0,0,.56-.06c.29-.06.38-.3784.43-.8364.07-.6571.07-1.9017.07-3.3454v-6.422l-2.31.07c-.87,0-1.27.09-1.5.4282a1.6623,1.6623,0,0,0-.26.5376.2166.2166,0,0,1-.204.2287c-.0053,0-.0106,0-.016,0-.15,0-.19-.1493-.19-.2987s.31-1.7225.34-1.822.09-.3385.23-.3385a.5214.5214,0,0,1,.19.06,1.4143,1.4143,0,0,0,.49.1294c.47.05,1.08.08,1.58.08h6.27a7.66,7.66,0,0,0,1.09-.08h.43c.17,0,.17.1793.17.3784v1.8221c0,.209,0,.2887-.19.2887s-.2-.1394-.22-.3485V50.082c0-.5078-.71-.8165-1.83-.8364l-2-.05v6.422c0,1.4437,0,2.6883.08,3.3653,0,.4879.16.7568.58.8065a5.3087,5.3087,0,0,0,.8.07c.25,0,.3.09.3.1693s0,.1991-.35.1991M188,60.0984h2.48c.08,0,.26,0,.26-.1095s-.13-.08-.21-.08a5.3354,5.3354,0,0,1-.81-.07c-.53-.07-.61-.4779-.66-.8861-.08-.6771-.08-1.9316-.08-3.3753V49.1062h2c1.61,0,1.89.5974,1.92.926v.1693c0,.2489.05.2788.13.2788s.08,0,.1-.2191,0-.6173,0-.9957v-.8264c0-.1593,0-.2887-.09-.2887l-.27.05h-.14a8.1477,8.1477,0,0,1-1.11.08h-6.27a10.3136,10.3136,0,0,1-1.58-.08,1.4545,1.4545,0,0,1-.52-.1394c-.16-.06-.22-.1693-.31.219,0,.1394-.33,1.5632-.33,1.8022s.05.2091.1.2091.1,0,.13-.1593a2.0628,2.0628,0,0,1,.28-.5676c.25-.3684.67-.438,1.57-.4679l2.4-.07v6.5116c0,1.4438,0,2.6983-.08,3.3554,0,.4979-.15.8463-.49.9061a2.4592,2.4592,0,0,1-.58.07c-.21,0-.21.06-.21.08s0,.11.27.11h2m8.1-9.15a1.9,1.9,0,1,1,2.014,1.7787l-.0072,0c-.0356.002-.0712.0031-.1068.0031a1.7969,1.7969,0,0,1-1.8972-1.69Q196,50.9546,196,50.9084m3.44,0a1.55,1.55,0,1,0-1.4206,1.4144,1.55,1.55,0,0,0,1.4206-1.4144m-2.25-.2887v-.5576c0-.11-.06-.1394-.22-.1394h-.06s0-.06.1-.06h.8c.35,0,.87.06.87.5477,0,.2091-.06.3684-.37.6173l.35.4281c.27.3286.35.3585.39.3585h.06s0,.06-.14.06c-.27,0-.42,0-.73-.3883l-.28-.3883h-.37v.6272a.5891.5891,0,0,0,.2,0h.07s-.05.06-.09.06h-.85s0-.06.08-.06.18,0,.2-.1294a5.1988,5.1988,0,0,0,0-.5775Zm.38.2489a.6325.6325,0,0,0,.31.06.3906.3906,0,0,0,.2-.06.3979.3979,0,0,0,.19-.3684.4788.4788,0,0,0-.4576-.4991h0a.4968.4968,0,0,0-.0622.0012h-.18Z" style="fill: #fff"/>
    <g style="clip-path: url(#logo-white-a)">
      <rect x="-16.5063" y="9.8239" width="90.2449" height="64.8965" transform="translate(-16.0597 66.9681) rotate(-84.8368)" style="fill: url(#logo-white-b)"/>
    </g>
    <g style="clip-path: url(#logo-white-c)">
      <polygon points="34.329 44.071 41.367 41.802 43.353 47.912 36.314 50.181 34.329 44.071" style="fill: url(#logo-white-d)"/>
    </g>
    <g style="clip-path: url(#logo-white-e)">
      <path d="M25.3511,8.961a7.5956,7.5956,0,0,0-1.6794-1.2645c-.59-.2091.8.219,1.3695.3983s.09-.4879-.21-.7269.52,0,.52,0a5.1958,5.1958,0,0,0-1-1.0952c-.48-.3186.5,0,.5,0a3.0847,3.0847,0,0,0-1.3-1.2048c-.78-.2787-1.6194-.4779-1.6194-.4779h1.7294a2.8772,2.8772,0,0,0-1-.3086l.9-.2788-.57-.13s-.11-.1792.25-.1792h.6a9.586,9.586,0,0,1-1.6494-.8065C21.3725,2.4,20.3728.5177,16.994,0S8.457-1.384,7.9272-1.1151,4.0486,1.6428,4.0486,2.33a32.0746,32.0746,0,0,0,1,6.7506,7.5136,7.5136,0,0,0,2.4991,3.0965s1.61,2.987,1.53,3.5844,1.47.5974,1.47.5974,1.2695-2.4991,2.0693-1.5931l.8.9061s1.2,4.2415,2.5791,4.56,2.3991.1494,2.2292-.4978l-.23-.6472.65.4282-.16-1.0651c.35.4281.35.5874.54.7667s.25,1.0952.19.1891-.11-1.4835-.11-1.4835a1.2229,1.2229,0,0,0,.44.8164c.37.2191.53.05.51-.2389a4.7961,4.7961,0,0,1,0-.5775,3.1067,3.1067,0,0,1,.48.8164l-.29-3.2658s.34-1.5333,1.18-1.5333h1.38l.42-1.3441V11.65a.4929.4929,0,0,1,.46.5078c.05.5078.52.07.66-.7966a2.6524,2.6524,0,0,0-.66-1.7822s1.13.5078,1.16.7069.84-.458.52-1.3143" style="fill: #fdf6f2"/>
    </g>
    <g style="clip-path: url(#logo-white-f)">
      <polygon points="5.999 15.016 16.341 12.074 19.268 22.279 8.925 25.222 5.999 15.016" style="fill: url(#logo-white-g)"/>
    </g>
    <g style="clip-path: url(#logo-white-h)">
      <polygon points="-8.568 49.819 19.253 8.736 56.389 33.685 28.568 74.768 -8.568 49.819" style="fill: url(#logo-white-i)"/>
    </g>
    <g style="clip-path: url(#logo-white-j)">
      <rect x="26.7397" y="55.846" width="8.324" height="7.3372" transform="matrix(0.0742, -0.9972, 0.9972, 0.0742, -30.7425, 85.9133)" style="fill: url(#logo-white-k)"/>
    </g>
    <path d="M0,53.298V0H4.1885l-.47,4.0524L5.9979,9.9567l1.5894,3.0467s1.6095.12,2.6691,5.1575.62,2.1009.62,2.1009a56.9267,56.9267,0,0,1,1.9293,6.3922c0,.906,2.4491,4.3909,2.4491,4.3909s1.57,5.8943,1.57,6.3125,1.5494,6.2826,2.1992,6.0337S23.3518,57.33,23.3518,57.33Z" style="fill: #231f20"/>
    <g style="clip-path: url(#logo-white-l)">
      <polygon points="29.767 35.416 39.667 32.599 42.149 41.254 32.249 44.07 29.767 35.416" style="fill: url(#logo-white-m)"/>
    </g>
    <g style="clip-path: url(#logo-white-e)">
      <path d="M38.0566,36.84a1.1508,1.1508,0,1,1-1.15-.9956,1.0981,1.0981,0,0,1,1.15.9956" style="fill: #fdfdfe"/>
    </g>
    <g style="clip-path: url(#logo-white-o)">
      <polygon points="27.18 35.096 42.853 28.126 49.285 42.473 33.612 49.443 27.18 35.096" style="fill: none"/>
    </g>
    <g style="clip-path: url(#logo-white-p)">
      <polygon points="20.73 72.745 44.164 52.397 63.72 74.74 40.285 95.088 20.73 72.745" style="fill: none"/>
    </g>
    <g style="clip-path: url(#logo-white-q)">
      <polygon points="21.217 35.043 38.132 25.394 47.452 41.603 30.536 51.252 21.217 35.043" style="fill: url(#logo-white-r)"/>
    </g>
    <g style="clip-path: url(#logo-white-e)">
      <g>
        <path d="M56.98-.219V1.384a22.9428,22.9428,0,0,0-3.1589-.2191c-.49.11-1.29,1.4039-2.3692,1.1749S49.7425.9957,48.7729.8264A2.8853,2.8853,0,0,1,47.2634.1Z" style="fill: #020202"/>
        <path d="M46.1138,1.0753c-.23.9957-.46,1.2048-1.9993,1.2944s-2.3692-.09-2.9989,0-1,.4779-1.5695.4779a4.7579,4.7579,0,0,1-1.9993,0c-.73-.2788-1.3995-.6671-1.09-.9957A3.9473,3.9473,0,0,1,39.0063.8563c1.17,0,1.6994.11,2.0993-.229a10.1139,10.1139,0,0,0,.88-.8463h4.5484Z" style="fill: #020202"/>
        <polygon points="47.263 0.1 47.263 -0.219 57.01 -0.219 52.941 1.076 47.263 0.1" style="fill: #020202"/>
      </g>
    </g>
    <g style="clip-path: url(#logo-white-t)">
      <rect x="42.4482" y="46.5947" width="15.1446" height="25.5291" transform="translate(-2.7399 2.4215) rotate(-2.6992)" style="fill: url(#logo-white-u)"/>
    </g>
    <g style="clip-path: url(#logo-white-v)">
      <g>
        <path d="M39.4523,35.2366c4.7067,3.6442-1.409,6.7008-1.409,6.7008l-2.888-.4181a5.4986,5.4986,0,0,1-4.5614-6.2962l.0017-.0105.0129-.0755c.56-.3684,4.1371-3.5446,8.8438.1M35.4551,34.69c-2.6781,0-4.8466,1.5333-4.8466,3.4151S32.777,41.52,35.4551,41.52s4.8466-1.5334,4.8466-3.4152S38.1332,34.69,35.4551,34.69" style="fill: #020202"/>
        <path d="M25.4621,77.0148s-1.5189,4.3709-1.8986,4.9783a10.8191,10.8191,0,0,0,.9993.9957,2.5041,2.5041,0,0,0,.56-1.5931c0-.8762.39-4.4009.39-4.4009" style="fill: #020202"/>
        <polygon points="43.789 72.784 44.299 73.102 44.189 72.286 43.789 72.784" style="fill: #020202"/>
        <path d="M42.63,71.6879s-1.1292-.8164-1.1592-.448a1.1945,1.1945,0,0,0,.7,1.0753c.34.05.46-.6272.46-.6272" style="fill: #020202"/>
        <path d="M40.5116,69.6966c.66,0,.6895,1.374.38,1.3939s-.76.3585-.9194,0,0-.8463-.42-.9359a5.9257,5.9257,0,0,1-1.9986-.458s0-1.1948-1.0892-1.1948a2.326,2.326,0,0,0-.55-1.1948l-.38-.5277-.7395-.2987h.55s1.8287-.3783,2.2084.9957,1.1093.448,1.1093.448-.36.9957,0,.8663,1.309.906,1.8487.906" style="fill: #020202"/>
        <path d="M41.0812,67.0183s-1.419.2987-1.1093.677,1.1093.3784,1.1093.3784-.43-.9957,0-1.0554" style="fill: #020202"/>
        <path d="M36.4144,66.1222s.05-.8165-.13-.8961-.8993-.4481-.9293,0,.15.9956.37.8961a2.1554,2.1554,0,0,1,.69,0" style="fill: #020202"/>
        <path d="M37.9733,65.5746s-.42-.6472-.36-.9957,1.1392-1.2745.76-1.5732-.24-.9956-.7795-.7467-.69.7169-.54,1.5931a3.8988,3.8988,0,0,0,.9193,1.7225" style="fill: #020202"/>
        <path d="M39.5522,62.727s-.4.677-.58.677.25.3485.66.468.34-.5676.34-.5676Z" style="fill: #020202"/>
        <path d="M41.1611,35.6448s.07-.6073.31-.677,0-.4481-.31-.2987-.16.6372,0,.9957" style="fill: #020202"/>
        <path d="M39.9719,34.7886c-.35-.12-.58-1.0853-.7-1.0853s-.58-.3385-.9993-1.0554c.66.5675.8095,0,.77-.1892s-.58-.4082-.58-.5177.47-.5576.47-.5576l-.7795-.1593.7395-.11-.7-.9957a.5564.5564,0,0,0,.16-.7468c-.28-.448-.9993-.448-.7-.5575s.9993.3385.9993,0a8.102,8.102,0,0,0-.9993-1.6827l.39-.4182-.39-.7069.27-.8662.8094.1194v-.9956l.58-.4082.58-.3784.08-1.493s-.58.2987-.66-.1493.66-1.155.46-1.3442-.11-.677,0-.4879.5,0,.5,0v-.8164l.54-.1195.66.08a.667.667,0,0,0,.27-.4879c0-.2987.69-1.0853.69-1.0853l.43.2589-.15-.2191a1.1992,1.1992,0,0,1,1.9986.8165c0,.3783-.46.4182-.46,1.2346s-.62.7169-.62.7169l-.31.448a.54.54,0,0,0-.65.2987,1.5183,1.5183,0,0,1-.8194.5974h-.38a1.8907,1.8907,0,0,1-.08.5277c-.08.229-.35.3386-.43.4481s-.54-.1494-.54-.1494V22.9a3.7347,3.7347,0,0,0,.16.8563c.11.2987.54-.2589.45,0A31.2332,31.2332,0,0,0,42.56,27.739c.12.2588-.55.677-.47.7865s-.43.4481-.7794.2987A14.5278,14.5278,0,0,1,39.6921,27.51l.7695.9957-1.1192-.4879s.8494.9957,1.0792,1.3143,1.6689,0,1.6689,0a2.1872,2.1872,0,0,1-.24.4481c-.15.219-.8194.219-.8194.219l.28.6372s-1.2391-.7864-1.5389-.9954-.08.5575-.08.5575,1.509.8264,1.6189,1.1251-.19.5974-.28.707.2.4181.28.6372-.28,0-.28,0l.56.677-1.1292-.677a4.0536,4.0536,0,0,0,0-.7866,4.8259,4.8259,0,0,0-1.1192-.8563s.8094.7468.7.936a1.9258,1.9258,0,0,0-.7,0l.35.219v.2688h.28v.8165h.24l-.21.3385.42.7069c.2.3286-.08.6074-.42.4979M38.7228,24.3241" style="fill: #020202"/>
        <path d="M39.4523,42.3755s-.77.5974-3.5475.4481c-4.9266-.1494-6.3256-5.6853-6.4855-6.2827s-2.3183-.7467-2.3183-1.7922a17.7093,17.7093,0,0,0,6.7952-1.8021C44.089,34.3007,42.55,43.72,42.55,43.72c-.47-2.0909-3.0978-1.3442-3.0978-1.3442m-7.8645-7.4774a4.0923,4.0923,0,0,0,1.9986,5.8346c2.1685.8961,5.5661.5177,5.9958,0s2.0686-3.8532.41-5.1078A7.7777,7.7777,0,0,0,32.4472,34.52a9.5268,9.5268,0,0,0-.8894.3784m-1.299,1.6229s.23,3.3256,2.4882,4.7693a8.6023,8.6023,0,0,0,6.7153.4779c-1.0792.09-4.1271.8164-6.5554-.8463a6.9052,6.9052,0,0,1-2.6481-4.4009" style="fill: #020202"/>
        <path d="M41.5508,35.6448a6.98,6.98,0,0,1,2.4683,2.6983,6.1654,6.1654,0,0,0-2.5482-3.3753Z" style="fill: #020202"/>
        <path d="M47.7165,39.05a1.9875,1.9875,0,0,0-.34.8065c-.53-.08-.8094-.5277-.9293,0a1.6627,1.6627,0,0,1-.58.8762h.58s.17.448.35.2788.8095.3584.9194,0,.58-1.4437,0-1.9914" style="fill: #020202"/>
        <path d="M44.6686,31.921s-.37.3884-.37.5576-.17,0-.28.468-.22,1.8818.32,1.6926.31-.4182.7195-.8065.9993-1.1251.29-1.5233-.31-.9957-.68-.3883" style="fill: #020202"/>
        <path d="M43.6693,34.221v.4282s-.18-.2788-.35,0-.29.9956,0,.9956a5.26,5.26,0,0,1,.6,0,1.2907,1.2907,0,0,0-.25-1.4238" style="fill: #020202"/>
        <path d="M47.6066,37.0288c.08-.7866-.52-.3385-.8095-.1095s-1.1092.6273-1.1392.926a16.9918,16.9918,0,0,0,.21,1.7125l-.21.5476a3.486,3.486,0,0,1,.73-1.0554,2.14,2.14,0,0,0,1.2192-1.9913" style="fill: #020202"/>
        <path d="M45.8678,34.6392s-.52.13-.58.4979c-.52.3186-.48.2986-.62.5077s-.37.3784.12.707,1.8587-.11,1.8487-.3286-.34-1.6229-.77-1.384" style="fill: #020202"/>
        <path d="M44.4888,36.4712h-.52c-.14,0,0,.3286.12.5576s.9993.2788.45-.5576" style="fill: #020202"/>
        <path d="M47.9663,30.8656a3.4454,3.4454,0,0,0-1.6788,2.31c-.2,1.5234.61,1.4437.61,1.4437a3.5959,3.5959,0,0,0,1.0692-3.7537" style="fill: #020202"/>
        <path d="M48.8757,33.4942s-1.5289,0-1.6289,2.1506a1.3456,1.3456,0,0,0,.76.8264,5.78,5.78,0,0,0,.8694-2.987" style="fill: #020202"/>
        <path d="M50.2647,34.6492s-1.5989,1.0653-1.379,2.19,1.439.6671,1.379.3485.7-1.5433.35-1.9913Z" style="fill: #020202"/>
        <path d="M47.6166,41.5193s-.8494.448-.37,1.8519c.47-.1693.7795-.7866.37-1.8519" style="fill: #020202"/>
        <path d="M49.785,41.818a5.5394,5.5394,0,0,0-.8993,1.593c-.12.6173,1.2091-.1692,1.2091-.5575a3.1967,3.1967,0,0,0-.31-.9957" style="fill: #020202"/>
        <path d="M49.4853,39.05a1.986,1.986,0,0,0-.38,1.6827c.58-.2788,1.1292-1.0654.6795-1.6827s-.3,0-.3,0" style="fill: #020202"/>
        <path d="M47.2468,28.5557h-.9993l-.43-.6173s1.1992-.5675.69-.9957a2.4717,2.4717,0,0,1-.69-.916l-.3.3584s-.7095-.5476-.8993-.3584-.8095.7468-.8095.7468-.43,1.9913.41,2.31c.56.219-.29,2.6186,1.2291,2.6186.52-.229,2.5982-1.832,1.9986-2.8277s-.2-.2688-.2-.2688" style="fill: #020202"/>
        <path d="M46.2975,25.0709s.8694-2.6684-1.8087-2.987c-1.9986.5575-2.1585,1.2943-1.3491,2.19s1.3291,1.1152,1.6489.8364,1.429.3385,1.5089,0" style="fill: #020202"/>
        <path d="M48.8657,18.45s.9993,2.3.62,2.6982-.9993,1.1749-1.2991.8961A12.1269,12.1269,0,0,0,46.6373,20.75c-.25-.11-.05-1.852.9193-1.9914a3.2255,3.2255,0,0,0,1.3091-.3386" style="fill: #020202"/>
        <path d="M48.0663,23.2189l-.26.3983-.36-.1991s-.6,1.3242.56,1.7722c.06.8364-.11,1.852.53,1.852s1.8088-.7866,1.2491-1.9117a1.9939,1.9939,0,0,0-1.7187-1.9117" style="fill: #020202"/>
        <path d="M51.4239,39.8266a1.1719,1.1719,0,0,0-.0063,1.6565l.0051.0051.0012.0012c.29-.1693,1.5689-.1494,1.5089-.8264s-1.2691-1.1351-1.5089-.8364" style="fill: #020202"/>
        <path d="M52.9628,36.0929c-.19-.12,0,.5576,0,.5576h-.35a1.2026,1.2026,0,0,0,0,1.8917l.23-.5575.35.5575s.8693-1.7622-.23-2.4493" style="fill: #020202"/>
        <path d="M53.8622,38.3431s-.8494,1.9117-.37,1.7623l.48-.1593.35-.09s.08-1.3342-.46-1.5134" style="fill: #020202"/>
        <path d="M49.5052,28.8743a6.0851,6.0851,0,0,0,0,.9957c0,.677-.13-.3286-.43,0s-.66-.7468.45-.9957" style="fill: #020202"/>
        <path d="M50.9642,27.54s-.7395,1.4636-.8594,1.6827.43.229.43.229,0,.8364.57.9957,1.2591.5575,1.3791,0-.09-3.1462-1.519-2.8674" style="fill: #020202"/>
        <path d="M51.284,33.4942v-.3286a5.3007,5.3007,0,0,0-.11-1.1151c-.12-.4779-.35-.8961-.8095-.916a2.0747,2.0747,0,0,0,0,2.36,5.3914,5.3914,0,0,1,.9194,1.4338c.18.2987.43.2887.7095-.3187s.43-1.4138.7894-1.6627-.22-1.8121-.6795-2.0909a1.7143,1.7143,0,0,1-.66-.7766l-.18.5974.18,1.4636" style="fill: #020202"/>
        <path d="M56.96,37.3076v2.4493s-1.339-.5476-1.449-1.4138c.29-.5874.58-.5675.7195-.4978s-.2-.5974,0-.8165.73,0,.73.2788" style="fill: #020202"/>
        <path d="M55.541,36.4712s.23-.9956,0-.8264a.5311.5311,0,0,1-.52,0,.4411.4411,0,0,0-.35-.0995c-.23,0-.57.3883-.35.458s.38-.229.62.09a1.07,1.07,0,0,0,.6.3783" style="fill: #020202"/>
        <path d="M54.3219,38.0344s.12,1.2546.29,1.1849.26-.1.33-.4481a.6575.6575,0,0,0-.5725-.7326l-.0012,0c-.0152-.0019-.03-.0033-.0458-.0041" style="fill: #020202"/>
        <path d="M56.96,34.221V28.0479s-2.2584-.1693-.35,3.0866c-.12.7865-.47.9359-.38,1.8121a1.731,1.731,0,0,0,.73,1.2744" style="fill: #020202"/>
        <path d="M54.9614,28.0479s-1.0692-.219-1.1092,1.4039.43,2.0809.8094,1.9913,1.0993-1.7424.3-3.3653" style="fill: #020202"/>
        <path d="M54.9614,31.6821s-.4.8164-.31.916a1.1412,1.1412,0,0,1,.15.3485s-.21-.1593-.22.219.44.7169.73.8364.5-.229.57-.5078.25-1.1151-.33-1.4636Z" style="fill: #020202"/>
        <path d="M53.4924,32.9466s-.26.3783-.15.5476.9094.2788.9094.2788Z" style="fill: #020202"/>
        <path d="M53.4924,34.0219a1.6613,1.6613,0,0,0,.29.6273s-.43.3086-.15.3385.62-.3385.62-.3385l-.38-.4282Z" style="fill: #020202"/>
        <path d="M52.9628,25.1306,51.4639,26.415h.55l-.24,1.105.42.5277s.7794-.3286.61-.5277l.17.1991a2.0856,2.0856,0,0,0,.52-2.2c-.56-1.1151-.58-.3883-.58-.3883" style="fill: #020202"/>
        <path d="M55.2612,25.19a3.1364,3.1364,0,0,0-.3,1.842l.3-.6173s.11,1.5732.29,1.6329S57,27.43,57,27.0519s-.13-2.6285-.56-2.41a4.1953,4.1953,0,0,0-.7895.5676Z" style="fill: #020202"/>
        <path d="M56.96,22.3726l-.7.5277s.36-.8961.17-.8363a5.6843,5.6843,0,0,0-.8894.8363s.46-1.2943-.24-1.2346a5.607,5.607,0,0,1-1.0493,0s.31,1.0654.07,1.2346a.3807.3807,0,0,1-.45,0s.09-1.1251-.22-1.2346-.7195-.9957-.7195-.9957.15.3883-.13.3883-.05.9957-.31.7667-.7794,0-.7794,0l.3,1.7623-.73.4481.18-.4481-.37-.3982s-.7095.5675-.7095.3982a3.7047,3.7047,0,0,1,.32-.7866l-.61-.1692v-.5277s-.06.1593,0-.3485a3.458,3.458,0,0,0,0-.8861,1.3662,1.3662,0,0,0,0-.1693s.7395-.9957,1.0793-.8463a.6478.6478,0,0,1,.37.4182V19.0073a.7862.7862,0,0,1-.37-.5576c0-.3385.27-2.36.6195-1.9913a4.1035,4.1035,0,0,1,.7795,1.8021v.3883a11.3888,11.3888,0,0,1,.28-1.4138c.07,0,.8194-.2888.8494,0a3.7437,3.7437,0,0,1,.13.906v.339s0-.11-.43.229-.52.448-.51.8363.51.7567.51.7567.44-1.6528.9993-1.374.52.5078.63.8961.21-.3286.69-.219l.7894.1692.56-.5078Z" style="fill: #020202"/>
        <path d="M37.9134,32.28v-.8463H34.2859s3.6275,1.2943,3.6275.8463" style="fill: #020202"/>
        <g>
          <path d="M36.0233,26.4528a2.5654,2.5654,0,0,1,.564-.105" style="fill: #020202"/>
          <path d="M37.43,27.0134l.1836-.5486a2.4487,2.4487,0,0,0-.6417-.112c-.0069,0-.0114-.0037-.0184-.0037l-.001,0-.001,0-.0143.003q-.1345-.0062-.2693-.0033l-.0076-.0016-.0066.0014c-.0184,0-.0368-.0009-.0552-.0007l-.0034-.0007-.003.0006h-.0048l.0011.0008-.0077.0019-.0066-.0014a.4721.4721,0,0,0-.0589.012l-.0025,0a.4757.4757,0,0,0-.0676.0137l-.0109-.0022a.38.38,0,0,0-.12.0288l-.01-.002-.0116.0031-.0152-.0031a.5.5,0,0,0-.2166.047c-.0114.0033-.0241.0046-.0359.0073l-.0013,0-.0173.0042a.5.5,0,0,0-.0861.023,2.6263,2.6263,0,0,0-1.634,1.05c-.7,1.1549,1.3091,1.613.9993,1.6329s-.42.9259-.42.9259a4.1538,4.1538,0,0,0-1.1991-.9259c-.54-.1992-.77-.1-.85-.3286s.62-1.3243.62-1.7823-.31-.1494-1.2791,0-1.7388,3.0567-1.7388,3.6342.6995.4779,1.3191.7567,1.9287-.2987,1.9287-.2987l3.8972-.2788.04-.03c.05-1.5035-.42-1.6424-.8094-1.7524-.1507-.0478-.1467-.2379-.0934-.4444l.0915-.2772.0019-.0052a3.4011,3.4011,0,0,1,.17-.3286l.46-.9957.0063-.0189" style="fill: #020202"/>
        </g>
        <path d="M30.1189,30.6765a.8384.8384,0,0,0,.8494.7567c.23.3883.31,1.1052,0,.9359s.61-1.145-.31-.1693-1.5489.9957-1.5489.9957.16-1.4039.54-1.4835.47-.9957.47-.9957" style="fill: #020202"/>
        <path d="M29.4993,36.84s-2.0885-.229-2.3983-.8164a2.2914,2.2914,0,0,1,0-1.5035,7.3258,7.3258,0,0,0,.31-.9956c0-.1693-.08-1.5931.31-1.5931s.62,1.7623,1.3891,2.1208.39,1.6229.39,1.6229Z" style="fill: #020202"/>
        <path d="M27.101,37.0288s.49.7069.59.8165.6895.3086.59.6969-.9993.9957-1.1791,1.3143a4.86,4.86,0,0,0-.14,1.2944s-1.399.1294-1.5589-.5178,0-2.3.47-2.3.31-.9956.46-1.1649a8.2444,8.2444,0,0,1,.63-.5874s1.339.3783,1.319.7268" style="fill: #020202"/>
        <path d="M28.29,38.831a.7932.7932,0,0,0-.08.1294c-.16.2191-.45.687-.33.7468s0,.3584,0,.3584a.45.45,0,0,1,.44.5277c-.03.5277-.7.8364-.44,1.1351a4.4335,4.4335,0,0,0,1.2591.677l-.66.6074s.8494-.2987,1.1392,0a3.6772,3.6772,0,0,1,.55.9956l.9993.3087s-.57,1.5632,0,1.5632,1.1892-.9957,1.419-.7468.31.1494,0,.7468,1.3091-.1394,1.6988-.9957.31-1.1251,0-1.1948a8.4251,8.4251,0,0,1-3.1178-1.6528c-.8194-.8961-.9993-.926-.9993-.926s.8794-.1194,0-.4181.09-1.3641-.55-1.5035S28.41,38.7115,28.32,38.831" style="fill: #020202"/>
        <path d="M37.2139,45.7309s-1.2392.7567-.8794.9957.9993-.2987.9993-.5974-.16-.3784-.16-.3784" style="fill: #020202"/>
        <path d="M36.3345,44.805c-.2,0-1.1792.3385-1.1792.5974s.39.4181.59.3086.8894-.1394.8894-.4381-.16-.4779-.3-.4679" style="fill: #020202"/>
        <path d="M33.6764,45.2928a1.87,1.87,0,0,0,1.9986-.9956c-.17-.229-.7495-.09-.8395,0s0-.3186-.33-.3485-.8594,1.3143-.8594,1.3143" style="fill: #020202"/>
        <path d="M36.4844,48.36s1.2591-.7268.8894-.8662-1.3891-.11-1.2991.11.27.3983.47.2788-.06.4779-.06.4779" style="fill: #020202"/>
        <path d="M37.9134,42.6842s1.6488-.06,2.0585,0,.45.8861,0,1.2944.9993-.6572.9993-.6572-.29-.07.13.7567c-.12.5476-1.2391,3.6043-1.1192,4.2814s3.5675-4.3312,2.5083-6.2827-2.4583.1593-2.898,0-1.6988.6074-1.6988.6074" style="fill: #020202"/>
        <path d="M39.0226,76.6663s2.9479,3.2757,6.5454,2.529c-.42.7567,2.9379,3.8134,8.6839.1095a2.4574,2.4574,0,0,0,1.0493.12c.7,0,2.1884-3.226-5.5162-5.4662-2.4482-1.8022-5.4561-2.987-4.7266-8.5329.7294,2.5489,1.1891,3.2957,1.5789,3.2957s2.4982-1.6528,4.4568,0c.8694.9956,1.1592,2.0909,1.7088,2.0909s1.2891-.7468,2.7381-.1494,1.419-.15,1.419-.15V80.39a3.0179,3.0179,0,0,1-3.6174,1.3541l-.66.06c-2.6781.3087-6.9951,1.3242-13.66-5.1575" style="fill: #020202"/>
        <path d="M46.6373,78.03s-.08,1.1749.9993.7368" style="fill: #020202"/>
        <path d="M45.8078,78.4485c-.23-.06-.8094.4182-.8094.4182v-.4182h-.35s-.06-.3783.23-.4182.9293.4182.9293.4182" style="fill: #020202"/>
        <path d="M43.7293,78.03s-1.2791.1494-1.3391,0a1.2127,1.2127,0,0,1,0-.4779h-1.419l-.34-.2887-.53-.2788V76.666l-.7494-.3883s.8094.2787.9993,0c.12.3883.29.6671.6395.6173s.17.3286.52.2987.9993-.1991,1.0992,0,.7.3286,1.1092.8563" style="fill: #020202"/>
        <path d="M39.3224,72.4944s-.55,1.1251-.3,1.5732c-.51-.6173-.57-.8364-.7395-.7866s-.29-.448-.29-.448v-.7269h-.8694a2.9234,2.9234,0,0,1-.8694-.2788c-.23-.1692.8095,0,.8095,0a2.4076,2.4076,0,0,0-.29-.677,10.2882,10.2882,0,0,1-.55-.9957l-.25-.2987a1.6219,1.6219,0,0,0,.58,0c.29,0,.52.1693.75.5676a3.8362,3.8362,0,0,1,.35.9956l.7494-.1593.12.3883.51.2987h.8794Z" style="fill: #020202"/>
        <path d="M39.902,73.45s.23,1.1749.69,1.3441,0,.3385,0,.3385.06-.219.47-.1692.46-.5576.46-.6671.29-.229.29-.229h-.6395l-.31-.3286V73.45l-.9993-.6771Z" style="fill: #020202"/>
        <path d="M43.03,73.739a1.4532,1.4532,0,0,0-.28,0c-.16,0-.31.12-.18.2987.23.3385.46.229.46.229s-.29.1095,0,.4979.29.229.6895.1692.41.1693.41.1693a1.17,1.17,0,0,1-.8094.448c-.46,0-.5-.1593-.8-.448l-.3-.2788-.41-.7866Z" style="fill: #020202"/>
        <path d="M44.129,75.581h.52l-.52.6771s.64-.2788.8095-.3386.8693.11.8693,0,.73-.3385.83-.3385a1.2732,1.2732,0,0,1-.83,0l-.58-.448-.26-.4581s-.8094.697-.8094,1.1451" style="fill: #020202"/>
        <path d="M44.6886,58.356s-1.369.7866-.9993,1.5731.47.4481.9993,0,1.3591-1.3541,0-1.5731" style="fill: #020202"/>
        <polygon points="43.14 60.397 44.269 61.493 45.228 60.945 44.129 60.945 43.14 60.397" style="fill: #020202"/>
        <path d="M46.5673,61.4923s-.45.5676,0,.9359a1.0023,1.0023,0,0,0,.9993,0v.5875l.4-1.5234s-.43-.5376-.8194-.5476" style="fill: #020202"/>
        <path d="M47.9663,63.0157s-.8194,0-.8194.5775.64.8563.8194.6372.67-1.2147.33-1.2147" style="fill: #020202"/>
        <path d="M40.2717,64.7183a2.8661,2.8661,0,0,1,0,.7368c0,.5974.42,1.6428.58,1.2744s1.459-.9956.9993-1.2744-.47-.5875-.7095-.7368-.8294,0-.8294,0" style="fill: #020202"/>
        <path d="M42.97,64.7183s-.8893.7567-.58,1.1151.35.1593.7495,0a1.3807,1.3807,0,0,0,.59-.3783s-.8694-.4381-.76-.7368" style="fill: #020202"/>
        <path d="M47.6166,71.9568s.58,1.4536,0,1.7822,1.2491-.07,2.1684.2191a9.3343,9.3343,0,0,1,2.3384,1.5034l.68,1.7126a1.73,1.73,0,0,1,2.1585-1.5931c1.9986.2887-5.1664-4.7891-5.1664-4.7891s2.1785-3.0468,0-.936" style="fill: #020202"/>
        <path d="M54.5717,40.7327s.53.9957,1.0692.7866.29-.8862.29-.8862Z" style="fill: #020202"/>
        <path d="M52.8029,41.818s-.16.3584-.31.6671.7395,1.4238.82.9259a10.0145,10.0145,0,0,0,0-1.593,1.0028,1.0028,0,0,1-.51,0" style="fill: #020202"/>
        <path d="M54.5717,42.6842s-.26,1.0454.38,1.0454.59-.229.59-.229-.61-.916-.9993-.8164" style="fill: #020202"/>
        <path d="M39.0226,50.57s-1.6688,1.6129-1.429,2.1008c-.14.5576-.9993,1.2645-.8394,1.5334s.2.448.56.1792.25-1.2645.56-1.3043a2.8407,2.8407,0,0,0,.8994-.5377.9336.9336,0,0,1-.2-.4381,15.8683,15.8683,0,0,1,.45-1.5333" style="fill: #020202"/>
        <path d="M38.5329,48.14s-2.728,1.9914-2.828,2.4295,0,.8264-.22.9956-.9094.4979-.9394.9957-.16.6472,0,.9957.44.4082.61,0,.5-.3585.9194-.9957a4.5819,4.5819,0,0,0,.6795-1.5433c.08-.3883-.14-.8363.07-.9956a2.4107,2.4107,0,0,1,.77-.4481,1.2789,1.2789,0,0,0,.7-.4879,1.45,1.45,0,0,0,.24-.8961" style="fill: #020202"/>
        <path d="M36.0747,48.698s-.59.9359-.9194.7866c.17.5675.06,1.4238-1.1792,1.5134-.08-.8364-.23-.448.27-1.145s.35-.5576.7394-.697l1.0893-.458" style="fill: #020202"/>
        <path d="M33.3965,51.2071s-1.419.3385-1.419,1.1649,0,.9957.31,1.155.58.4082.9993,0a1.5793,1.5793,0,0,0,.43-1.6827Z" style="fill: #020202"/>
        <path d="M34.4658,55.4387s-.8394,1.2645.23,1.7523c.48-.3683.24-.11.46-.5575a2.1736,2.1736,0,0,0,.21-.936c0-.1095-.21-.2588-.21-.2588Z" style="fill: #020202"/>
        <path d="M36.6343,55.6577s-.9494.4879-.74,1.3143l.2.8264s.56-.229.54-.6073.55-.8563.55-.8762.34-.6173,0-.6572a2.6157,2.6157,0,0,0-.55,0" style="fill: #020202"/>
        <path d="M13.99,3.6143,12.2914,5.1177h3.5475V6.6112L13.3606,8.2541h4.1671s0,.5277-.6895.5277-1.5489-.4481-.39,0,.54.7467,1.1592.448-1.0792.2987-1.389.8165,1.2691-.2987,1.5189,0,.56,0,.9494.1792.31-.1892,1.1592,0a5.8848,5.8848,0,0,0,1.8487.06,10.0247,10.0247,0,0,1-2.7781.6671H16.9881s.9993.5178,1.9286,1.0455a4.5972,4.5972,0,0,0,1.9986.7467c.46,0-.8494.3784-1.3091.6771s.54.1493.9993.3684a4.57,4.57,0,0,1,1.0793.9956l-1.459-.3783a1.0812,1.0812,0,0,1,.77.3783c.31.3784-.77.6771-.77.6771l.9993.448h-.9993s.54-.2688.77.4979l.23.7666s-.69-.9956-.9993-.7666a2.6959,2.6959,0,0,1-1.0892.3186,1,1,0,0,1-.8494.4978c-.62,0-1.6989.7169-2.2385,0a2.6023,2.6023,0,0,1-.54-1.7623c-.08-.7567.23-.5974-.8494-.9957s-1.9986-1.1251-1.6988-1.4238,1.2391-.1493,1.3191-.5277-.39-1.6428-.9993-1.6428a2.3191,2.3191,0,0,1-1.5389-.9957c-.08-.219-.7-.8164-.62-1.1948a11.7617,11.7617,0,0,0,0-1.7225s.53-.3684,0-.3684a3.45,3.45,0,0,0-1.379.2984c-.31.1494-.16.4481-.78.1494a.9345.9345,0,0,1,.03-1.5533c.54-.3684,1.8587-1.5731,2.3983-1.8718a3.5494,3.5494,0,0,1,2.6282,0" style="fill: #020202"/>
        <path d="M4.0971-.219a10.2909,10.2909,0,0,0-.47,4.0623,15.3969,15.3969,0,0,0,.9294,4.3411c.54,1.4935.46,2.31,1.2291,3.5147a27.259,27.259,0,0,0,2.0886,2.6186c.54.677.54,1.7324.9293,2.8874s.54,2.4195,1.0793,2.987a7.9968,7.9968,0,0,0,2.1085,1.3043s-2.1685-4.2614.69-6.7307l-1.8487.5277s-1.0992-2.25-1.9486-2.6982-.75-.5277-.76-1.0455.76-.906.76-.906a3.7738,3.7738,0,0,1-1.1592,0c-.9993-.07-1.7788.4978-1.8587-.1992a3.2924,3.2924,0,0,1,.13-1.2145s-.54-.08-.7-.8961S4.297,6.6114,4.297,5.1876s-.2-2.6186.41-3.2956A22.4963,22.4963,0,0,1,7.7945-.219Z" style="fill: #020202"/>
        <path d="M18.8767,20.75s-3.3676-.3385-3.7673-1.2346c.41,1.3441,1.2791,2.061,1.8887,1.9913a8.1225,8.1225,0,0,0,1.8786-.7468" style="fill: #020202"/>
        <path d="M16.9881,22.044s-1.1392.6174-1.8887,0c0,0-1.7488,1.0853-2.4483.2689S14.47,25.35,15.9688,25.1306l-.11-.9957a5.1,5.1,0,0,0,2.3183-1.9913c-1.1791,1.3442-2.858,1.5632-2.818,1.1152s1.2891.3584,1.6289-1.1749" style="fill: #020202"/>
        <path d="M37.5636,21.1479s-3.9172,2.768-2.9979,3.465l.8994.687a3.6867,3.6867,0,0,0,1.9286-.687c.62-.6074,1.2592-1.165,1.1392-1.842s-.38-1.623-.9493-1.623" style="fill: #020202"/>
        <path d="M32.6671,23.6172s-.8195.1693-.9993.448-.64.1892-.9294.5477a4.8181,4.8181,0,0,0-.9193,2.4294c0,.8961-.13,1.1151.31.9957a2.8587,2.8587,0,0,0,1.479-.9957c.18-.3983.9993-.9359,1.3391-1.1948s.8094-1.4437.4-1.7823a2.67,2.67,0,0,0-.69-.448" style="fill: #020202"/>
        <path d="M28.78,25.3s-1.6788.9956-1.6788,1.4039c-.58.05-.7495-.3386-1.2691.3385a4.5811,4.5811,0,0,0-.9993,2.4095c0,.7268-.11,1.0654.23,1.4039a9.8928,9.8928,0,0,1,.8694.8264c.29.3485.24.7467.58.687a3.6162,3.6162,0,0,0,1.2691-1.6926,2.2844,2.2844,0,0,1,.5-1.5732A4.1362,4.1362,0,0,0,29.1,27.52a4.2637,4.2637,0,0,0,.25-1.1948c.06-.7467-.22-1.2346-.58-.9957" style="fill: #020202"/>
        <path d="M24.0331,27.52a2.0672,2.0672,0,0,0-1.6188,1.2944c-.41,1.145-.7,1.8021-.35,1.8619s.71.229.9094,0a4.52,4.52,0,0,0,.37-1.2247s.23-.8961.69-.8961.46-.4879.46-.4879Z" style="fill: #020202"/>
        <path d="M37.3738,19.5151s-.23.8662.19.7069.16-.5974.35-.7069-.54,0-.54,0" style="fill: #020202"/>
        <path d="M35.8448,19.5151s-1.0592.8662-.56.9956l.5.13s.57-.4481.55-.5676a3.1853,3.1853,0,0,0-.49-.5575" style="fill: #020202"/>
        <path d="M33.9761,19.4653v.3883s0-.229-.43.229-1.2191,0-1.349.5576a.6858.6858,0,0,0,.33.8662c.23.1493.8793-.2489.9993-.3585a4.35,4.35,0,0,1,.7794-.5077c.17-.06.29-.3884.26-.7866s-.6095-.3883-.6095-.3883" style="fill: #020202"/>
        <path d="M31.1681,21.1479c0,.1693.35.8961.49.8961s.16-.3285-.49.06-.9993.4978-.9993.2788.07-.8463.28-.8463a2.3028,2.3028,0,0,0,.75-.3884" style="fill: #020202"/>
        <path d="M27.101,23.6172s-.8095.3385-.9993.448-.18.1394-.29.5477-.47.8064,0,.6372,1.0992-.1294.9993-.7965.28-.8364.28-.8364" style="fill: #020202"/>
        <path d="M21.9046,25.3s-1.459,0-1.5789.9956.18,1.2147,0,1.9416-.52,1.1848,0,1.1848,1.439-.1593,1.399-.6372a1.5315,1.5315,0,0,1,.6-1.2944c.41-.3186.64-.4978.41-1.1948s-.54-1.0454-.7994-.9956" style="fill: #020202"/>
        <path d="M26.3515,20.5008a3.2179,3.2179,0,0,0-1.5289.1394c-.5.2787-.5.06-.9993.5077s-1.2192.5078-1.2192.9957-.46.2191-.23,1.1152-.4,1.3939.44,1.2346.72-.5576,1.1792-.8364.9993-.229,1.369-.6173.9993-.9957.9993-1.1848V20.5008" style="fill: #020202"/>
        <path d="M43.14,14.467s-1.2091-1.3541-2.4882-.7866a6.5791,6.5791,0,0,0-2.1286,1.852c-.36.2788-1.6288,1.1052-1.6288,1.6727s.31.8563.9993.7368a14.0068,14.0068,0,0,1,1.6988-.4082c.7,0,1.469.3684,1.6588,0s0-.9957.28-1.145S42.44,16.2,42.61,16.04a5.4154,5.4154,0,0,0,.51-.8463Z" style="fill: #020202"/>
        <path d="M48.8857,14.6861a9.2444,9.2444,0,0,0-1.0793-.2191c-.49-.06-1.0592-.2788-1.2691.2191a5.8227,5.8227,0,0,0-.24,1.4039,1.1083,1.1083,0,0,0,1.5389,1.1151c.38-.1.37-.1294.8094.1095s.7195.4282.9993,0a2.43,2.43,0,0,0,0-1.5532c-.12-.3983-.39-.9957-.69-1.0753" style="fill: #020202"/>
        <path d="M37.1239,13.5411s-2.1984.6471-2.2584,1.2645a1.4516,1.4516,0,0,0-1.5289.5575c-.38.5078-1.3391,1.7026-1.1792,2.1706a.7506.7506,0,0,0,1.1792.4381c.54-.3585.8894-1.0953,1.2891-1.0953a2.1339,2.1339,0,0,0,1.449-.4878c.29-.3485.7594-.468.8194-.9161s.58-1.3341.23-1.9315" style="fill: #020202"/>
        <path d="M30.4186,15.7614s-.8594,2.35-1.309,2.21-.9094.5376-1.0793.9259.16.9061-.24,1.3741-.8594.9956-.46,1.2246a1.4526,1.4526,0,0,0,1.7788-.3485,2.6754,2.6754,0,0,0,.9993-1.9913c0-.7368.46-.5775.8094-1.2147s.9993-2.061.24-2.1407Z" style="fill: #020202"/>
        <path d="M55.3012,14.7458a1.2415,1.2415,0,0,0-.27,1.6429A8.2318,8.2318,0,0,0,57.03,18.1211v-2.36s-1.2492-1.6628-1.6889-.9957" style="fill: #020202"/>
        <path d="M56.96,12.6151v1.3242s-.76,0-.73-.677a.703.703,0,0,1,.73-.6671" style="fill: #020202"/>
        <path d="M56.96,6.83s-.9993.7368-.9993,1.4039a1.6285,1.6285,0,0,0,.31.9956s-.45.6173-.33.8961a1.9334,1.9334,0,0,0,.5.5576l.56.677Z" style="fill: #020202"/>
        <path d="M18.8767-.219A29.8005,29.8005,0,0,0,22.794,1.613c.26-.1095,1.9986-.1095,1.9986.2788s0,.9259.77,1.0852,1.0792-.1294,1.5888.2091.44.7866.67.9957.66-.5377,1.2591-.8264a11.0782,11.0782,0,0,1,2.6281-.7368c.58-.06.77.7268-.57,1.1151A13.604,13.604,0,0,1,28.52,4.58c-.52-.06-.75-.11-.75.448s-.06-.11.9194,0a5.3934,5.3934,0,0,0,2.798-.6173c.62-.3385,1.6688-.448,2.2484-.7866a3.8744,3.8744,0,0,0,1.389-1.1052c.29-.4679-.39-.3783.59-1.1549A3.1169,3.1169,0,0,0,36.8641-.229h-7.055s-.33,2.22-1.0893,2.5987c-.28-.9957-.48-.7069-.44-1.2944s-.51-.8164-1.0992-.6472-.54.3386-1.2391.6472-.8994.3585-1.1192,0a2.5863,2.5863,0,0,1,0-1.2943Z" style="fill: #020202"/>
        <path d="M18.8767,24.0652a2.2093,2.2093,0,0,1,1.3591-.8463c.8394-.11.6-.7766,1.1792-1.1151s1.0892-.9061.49-.9957-1.379.9061-1.379.9061Z" style="fill: #020202"/>
        <path d="M26.8212,14.3675a3.3365,3.3365,0,0,0-1.479,1.9913c-.21,1.2545-.59,2.26,0,2.0909s.71-.5277.9993-1.2446a15.7486,15.7486,0,0,0,.47-2.8376" style="fill: #020202"/>
        <path d="M30.1388,13.5411s-2.2384,1.603-2.3483,2.22-.63,1.7125.1,1.4437,1.409-1.6628,1.6988-1.8121.55-1.8519.55-1.8519" style="fill: #020202"/>
        <path d="M29.8091,10.6437s-.58,2.6484-1.529,2.8974-1.399.5376-1.4589,0,.17-.4879.6895-1.2944a2.751,2.751,0,0,1,1.8387-.926" style="fill: #020202"/>
        <path d="M13.99,24.0652s-2.2185,2.071-1.3691,3.3057S14.81,29.81,15.0694,30.8557s.8794.8463.8794-.1792a9.2013,9.2013,0,0,0-.8794-3.6442,5.5777,5.5777,0,0,1-.46-2.4194Z" style="fill: #020202"/>
        <path d="M19.5363,25.8873,18.1872,25.17v.3585s.27.1294,0,.3584a6.3029,6.3029,0,0,1-.7395.4779s-.6,1.2844-.45,1.7424.38.6671.38,1.0853a10.3841,10.3841,0,0,1-.39,2.36c-.29,1.0952-.6,1.2943-.6,1.2943s-.54-.08-.39,1.6528a12.2332,12.2332,0,0,0,.7,2.6684c0,.4182-.39.7965,0,.4182s.17-1.603.32-2.4493a27.5991,27.5991,0,0,1,1.8787-3.9827,2.8076,2.8076,0,0,0,0-1.9913l.66-.3386s-.39-.5775-.66-.4281.66-.8662.66-.8662l-1.3491-.1494.6895-.8961Z" style="fill: #020202"/>
        <path d="M19.5363,31.8613c-.08.1494-.9294.2987-.9993,1.0455s.08.7368,0,1.9913,0,1.7524,0,2.5588-.5,1.9217,0,2.23.49.9957.9993.1a3.7919,3.7919,0,0,0,.51-2.33V35.4656c0-1.1649.55-2.529.48-2.9372s-.9993-.697-.9993-.697" style="fill: #020202"/>
        <path d="M17.7475,39.7569c-.14.4481,0,3.2658.53,3.8433s.18.9957.5995,1.7325,1.0593,1.1948,1.1692.4281-.51-1.4835-.51-2.8078-.17-1.8021-.66-1.8619,0-1.2346,0-1.2346l-.5995-.6273Z" style="fill: #020202"/>
        <path d="M25.9218,33.4942s-1.2092-1.4935-1.9386-.6372-1.2392,1.5632-.8095,2.29.43,1.2745,0,1.3342-.41.5576-.41.5576H21.415s-1.1193.3385-.8794.9956-.62,1.5533,0,1.7126,1.1192-.2091,1.369.6073-.26,2.3.39,2.0909,1.4091-.8861,1.6489-.9259a1.4745,1.4745,0,0,0,.8794-1.165c0-.5974-.65-3.0766,0-3.1861s.9193-.4978,1.0992-1.1649.33-2.1606,0-2.5091" style="fill: #020202"/>
        <path d="M27.1809,41.818l-1.0692-.687s-1.0793-.2589-1.1292.687a5.6083,5.6083,0,0,0,.32,2.2,2.783,2.783,0,0,0,.77.677.6473.6473,0,0,0,.7095-.677,3.3031,3.3031,0,0,1,.2-1.5732Z" style="fill: #020202"/>
        <path d="M35.3652,46.7963s-.19.8065-.68.6472a11.7148,11.7148,0,0,0-1.1791-.3186l-.63.7865s-.9993.1793-.7595.8165.27.9359.7595.7169.62-.8264.9993-1.0554a2.3355,2.3355,0,0,1,.9993-.2191.6672.6672,0,0,0,.5-.7268Z" style="fill: #020202"/>
        <path d="M31.5179,48.36s-.55-.5178-1.0893.3385.15.7667-.6195,1.155-.62.3086-.7.7169.55.9359.7.9956a8.3073,8.3073,0,0,1,.8494.8961l-.23-1.4835a3.0013,3.0013,0,0,0,1.3091-.6571,4.366,4.366,0,0,0,.38-1.6429Z" style="fill: #020202"/>
        <path d="M29.11,46.7963v.6472h.48v.4679c0,.468-.09.6273-.48.8165s-.27.4182-.8295-.3385-.14-1.7026,0-1.5931.8295,0,.8295,0" style="fill: #020202"/>
        <path d="M27.1809,45.2928s-.9193-.8861-1.0792,0a2.5708,2.5708,0,0,0,.25,2.081,2.7844,2.7844,0,0,1,.47.9957l.9993-2.1806v-.5177Z" style="fill: #020202"/>
        <path d="M24.9825,45.3327s-.63-.6373-.7,0a3.8808,3.8808,0,0,0,.35,2.1207c.35.6472.6495.9957.9194.9957s-.21-1.6528-.21-1.6528Z" style="fill: #020202"/>
        <path d="M52.8729,82.3714s-.75.06-.9294.5676c.27-.06.47.6173.47.6173h.9294v-.5974h-.38Z" style="fill: #020202"/>
        <path d="M55.0713,84.96a3.3759,3.3759,0,0,1,.24-.8463l.23-.6174v.9957c0,.4281-.47.4281-.47.4281" style="fill: #020202"/>
        <path d="M20.9853,51.2071a3.1728,3.1728,0,0,1,1.329.6372c.7595.5576,1.5589,0,1.9087,1.2347a23.8246,23.8246,0,0,0,1.1392,3.2359c.26.4679.9993-.1693.7595.8762s.25,1.3541.25,1.3541L22.814,58.356l-1.3691-5.8147" style="fill: #020202"/>
        <path d="M20.5356,41.5193s-.8894,1.1251-.23,1.8519.66.5875.66,1.6727,0,2.081.46,2.37a4.2943,4.2943,0,0,1,.8693.7268s1.509-1.4337,1.3591-1.8917-.06-1.3641-.45-1.9217a8.89,8.89,0,0,0-1.7787-1.4636Z" style="fill: #020202"/>
        <path d="M23.6634,49.4846s-.7.2589-.45.8563a7.0676,7.0676,0,0,0,.9993,1.4437,10.8926,10.8926,0,0,1,.62,1.0653,5.6112,5.6112,0,0,1,.52,1.6628c0,.2489-.36.6472-.52.926s0,1.4636.52,1.2744a2.8366,2.8366,0,0,1,1.8387.4779,16.5464,16.5464,0,0,0,1.9287.5974c.25.1195.39.3286.7.7567s1.369,1.1252,1.359.8265a1.7,1.7,0,0,0-.7595-1.623,6.1013,6.1013,0,0,0-1.8686-.5974c-.52-.1294-1.449-.6173-1.449-.8762S27.97,55.23,28,54.8313s-.23-.5576-.8194-1.4039-1.7388-1.9116-1.8387-2.4692-.5-1.4039-.8394-1.5134a2.0058,2.0058,0,0,0-.8394,0" style="fill: #020202"/>
        <path d="M32.3773,55.6478l-1.2092-.2091s.57-.6771.8-.5676.08-.1891-.31-.4281-1.8687-.4082-1.8487.5974.11,1.2745.61,1.6727.8694.8364,1.2392.4779a1.7411,1.7411,0,0,0,.5-.8761c.1-.2589.22-.6671.22-.6671" style="fill: #020202"/>
        <path d="M29.8091,52.4815a6.7194,6.7194,0,0,1-1.519-2.1406c-.43-1.1351-1.2091-1.1948-1.1092-.8563s.6595.9957.61,1.0853.21.6372.21.6372-.9993-.458-1.1791-.8662-.13-1.0853-.47-.4879-.24.3883,0,1.3541a2.765,2.765,0,0,0,.9993,1.8718,5.3573,5.3573,0,0,0,1.9986.7767c.8594.1792,1.2791.3982,1.2391,0a4.8763,4.8763,0,0,0-.7994-1.3741" style="fill: #020202"/>
        <path d="M42.74,7.7363a5.2,5.2,0,0,0-1.469,1.3442c-.39.6671-.47.2688-1.2991,1.364s-1.7687,2.34-.9993,2.1706,1.1692-1.0654,2.4483-1.2944,1.8088-.2887,2.1185-.8762.7-.4679.45-1.364A2.4429,2.4429,0,0,0,42.69,7.7363" style="fill: #020202"/>
        <path d="M39.0226,7.7363c-.57.3286-1.6488.7766-1.6488.7766a7.3726,7.3726,0,0,1-1.2791,1.6628c-.42.2489-1.3491,0-.9394,1.145s.58,1.9914,1.479,1.2944.6895-1.1948,1.3091-1.9913.6-.8961,1.0792-1.5632a1.1914,1.1914,0,0,0,0-1.3442" style="fill: #020202"/>
        <path d="M34.2859,10.4445s-3.2177,1.1052-3.1178,2.1706.48.468.9993.2589.9993,0,1.5689-.6273a3.0977,3.0977,0,0,0,.56-1.8022" style="fill: #020202"/>
        <path d="M47.9663,7.7363A7.999,7.999,0,0,0,45.618,9.0805c-.59.6671.7694.2091-.08,1.5632s-1.399,1.2446-.9993,1.9913.9494,1.4039,1.6489.6671.53-.9957,1.5989-1.4437,1.7987-.8961,1.319-1.6628a2.0761,2.0761,0,0,1-.51-1.5433,1.1729,1.1729,0,0,0-.62-.8961" style="fill: #020202"/>
        <path d="M45.0584,3.3654s-3.6475.438-3.5076,1.3341-.08,1.9914.49,2.1308a2.7958,2.7958,0,0,0,2.0785-.5576c.47-.4481.24-.6671.9394-.9957s.7894-.677,1.379,0,1.2191.4481,2.1785,1.1152.26,1.6827,1.4789,1.8021,1.9986.2191,1.9986-.458V5.2671s-.51-.5676-.8394,0-.7794.7666-1.1891.5476,0-.6671.6095-1.2247,0-1.6627.09-2.061-1.2991-.1593-1.7088.458.22.3883.22.3883-1.5189-.5576-1.8287,0,.15,1.0853-.61,1.2247" style="fill: #020202"/>
        <path d="M54.5717,11.8385s-.7395.906,0,.9956,1.339.5477,1.2991,0,.3-.9956-.27-.9956h-.9993" style="fill: #020202"/>
        <path d="M52.1234,2.529a1.4791,1.4791,0,0,0,0,.9359c.18.3983.07.9957.76.6173s.9993-.219.9993-.7268-.15-.9359-.67-.8264a3.131,3.131,0,0,1-.9993,0" style="fill: #020202"/>
        <path d="M54.5717,2.987a.805.805,0,0,0-.33.8264c.14.5078.8494.6771,0,.8961s-1.5089.1195-1.2791.5675.17.8961.7195.9957a4.0108,4.0108,0,0,0,1.6489,0c.53-.1693.9993-.4381.9993-.916s-.2-.9957,0-1.1052a1.5743,1.5743,0,0,1,.7294,0V2.987s-2.0885-.8364-2.4183,0" style="fill: #020202"/>
        <path d="M53.6523,6.83s-.8893.9956-.7195,1.4337.58.3087.35.8165-.69.5775-.35,1.0952.36.8662.8994.8065a1.359,1.359,0,0,0,1.2591-.8065c.22-.5377-.05-.6372,0-1.2645s.45-.448.45-1.1848a.8574.8574,0,0,0-.8054-.9063h-.0007a.8677.8677,0,0,0-.1932.01,4.3066,4.3066,0,0,1-.9193,0" style="fill: #020202"/>
        <path d="M40.6515,5.6554s-1.0593,1.5134-1.6289,1.5134a2.0727,2.0727,0,0,0-1.389.5576c-.28.2887-.51.8463-.7395.3385s.6-.6273.9993-1.2446a2.4317,2.4317,0,0,1,2.7081-1.1649" style="fill: #020202"/>
        <path d="M35.7449,3.3454a.9956.9956,0,0,0,.73,1.1052c.8794.1892,1.7188-.1394,1.9986.1892s.57.6771,1.2091.3385.9993-.6173.9194-1.1749-1.369-1.0952-1.8987-.8264-1.3091-.05-1.439,0-1.5589.1394-1.5689.3684" style="fill: #020202"/>
        <path d="M50.9642,10.9523s-1.6188,1.0455-1.6788,1.5035-.53,1.5233.23.9956.8894-.06,1.2891-.667.3-1.5533.49-1.5533.66.1792.8394-.3286.52-1.4038,0-1.2943-.69.1493-.8394.6073a2.4028,2.4028,0,0,1-.33.7368" style="fill: #020202"/>
        <path d="M52.0335,12.4956a4.1865,4.1865,0,0,0,.09,1.8719c.29.8861.53,1.2844.8094.9956s.15-.8363.57-.7965.25-.239.33-.6372-1.2991-1.8719-1.7987-1.4637" style="fill: #020202"/>
        <path d="M49.7051,13.9393a4.414,4.414,0,0,0,.7994,1.8719c.52.4879,1.539.2489,1.459,0a2.17,2.17,0,0,0-.9993-1.4637,4.49,4.49,0,0,0-1.2591-.4082" style="fill: #020202"/>
        <path d="M36.1346,5.6156s-1.329-1.4238-2.2584-.4979-.37.8165-.37.8165-.8394.6571-.78.8861-.06.458-.35.916-.46.9957-.26,1.1749a2.404,2.404,0,0,0,2.1684-.6472c.29-.5874.41-.6969.8694-.5277s.8194-.3485,1.3091-.7663,1.2391-1.1948.7795-1.3243a2.8794,2.8794,0,0,0-1.1093,0" style="fill: #020202"/>
        <path d="M42.63,44.327s-2.938-.229-2.6282,8.752c1.3491-1.8022,1.2292-1.8022,1.9287-1.2347s.9293-1.3441,1.8487-.9956l-.46-.9957a1,1,0,0,1,1.7388.229C43.44,47.6127,42.64,47.4933,42.63,46.3682s0-1.9914,0-1.9914" style="fill: #020202"/>
        <path d="M2.9279,60.0884s-3.5874.8463-4.7766,2.1905a11.8726,11.8726,0,0,1,4.7766-2.19" style="fill: #da5f27"/>
      </g>
    </g>
    <g style="clip-path: url(#logo-white-w)">
      <g>
        <path d="M29.59,38.6119c0-3.0368-.92-4.2216,5.1482-4.1121s6.1678,1.6628,6.3978,4.55c0,3.5645-4.5984,4.819-7.5974,3.4251S30.6193,40.374,29.59,38.6117M35.8774,34.56a3.256,3.256,0,1,0,3.5388,3.2757A3.4035,3.4035,0,0,0,35.8774,34.6" style="fill: #020202"/>
        <path d="M38.0866,37.8353a2.0893,2.0893,0,1,1-2.1855-1.989l.0083,0c.026-.0011.052-.0018.078-.0019a2.0554,2.0554,0,0,1,2.0792,1.9913m-1-1.9913a.9957.9957,0,1,0,1,.9956.9957.9957,0,0,0-1-.9956h0" style="fill: #020202"/>
        <path d="M41.2955,38.0544S34.298,35.605,30.7792,36.9591c2.5091-2.519,6.4977-4.55,10.5163,1.0953" style="fill: #020202"/>
      </g>
    </g>
    <g style="clip-path: url(#logo-white-e)">
      <g>
        <path d="M7.5973,7.3779a10.5874,10.5874,0,0,0-1.7694.219,3.8541,3.8541,0,0,0,.51-1.2346c.06-.2589,1.26.9957,1.26.9957" style="fill: #fdf6f2"/>
        <path d="M3.4788,8.035c-.23.5277.38-1.3441,1.5194-1.6727s1,.7866,1,.7866-1.8993-.6372-2.5491.8861" style="fill: #fdf6f2"/>
        <path d="M5.3881,6.1433l-1.7594-.08.88-.6372s-.78-.7561-1.3095-.6668l-.77.1294s.81-1.0853,1.4795-.7866S5.3881,6.1433,5.3881,6.1433" style="fill: #fdf6f2"/>
        <path d="M5.9979,9.877a6.4293,6.4293,0,0,0-.92,1.5035,2.7014,2.7014,0,0,1,1.05-.6572Z" style="fill: #fdf6f2"/>
        <path d="M11.6159,14.4471s-2.0693.3485-2.4491,1.0654c.73-.9957.09-1.1152-.43-1.2247a5.6618,5.6618,0,0,1-.81-.239,1.1734,1.1734,0,0,0,1.26-.11c.65-.4779.09-.906-.33-.9956a1.3126,1.3126,0,0,0-.93.3186l.46-1.0554Z" style="fill: #fdf6f2"/>
        <polygon points="4.718 1.892 4.049 3.007 4.818 2.758 5.298 3.326 4.678 3.007 5.298 3.873 5.828 3.535 4.718 1.892" style="fill: #fdf6f2"/>
        <path d="M42.4351,40.2149s.68,3.216.21,4.61-1.08-1.5533-1.08-1.5533Z" style="fill: #020202"/>
        <path d="M13.9951,3.6143a11.2221,11.2221,0,0,1-2.3692,1.5034h1.18c.53,0,1.19-1.5034,1.19-1.5034" style="fill: #fdf6f2"/>
        <path d="M14.235,4.4506a1.2846,1.2846,0,0,1-.82,1.165,8.3418,8.3418,0,0,0,1.6994-.8065s.3-.1494-.38.8065a4.5422,4.5422,0,0,0-.74,1.3544s.92-1.2446,1.39-1.2546,1.2895-.09,1.2895-.09V4.1818Z" style="fill: #fdf6f2"/>
        <path d="M20.9926,9.5982s-2.3891.9957-2.779,1.9914A10.2646,10.2646,0,0,1,20.053,8.961c.1-.06.92.687.92.687" style="fill: #fdf6f2"/>
        <path d="M14.7348,4.1818a5.729,5.729,0,0,1-2.2992-.3087l.74.3983a5.0174,5.0174,0,0,0,1.5594.1294Z" style="fill: #fdf6f2"/>
        <path d="M13.4153,4.63s-.81.707-.87.9459c1-.4679.87-.9459.87-.9459" style="fill: #fdf6f2"/>
        <path d="M13.4153,7.2086a10.3945,10.3945,0,0,0,2.809,0c.55-.2489-.24.5277-.24.5277a2.8576,2.8576,0,0,1-2.5691-.5277" style="fill: #fdf6f2"/>
        <path d="M17.5338,8.2541a9.83,9.83,0,0,1-3.5387-.6572c-1.18-.6269-1,1.3641-1,1.3641s3.9187,0,4.4185-.4082" style="fill: #020202"/>
        <path d="M15.6345,10.6735s.38-.9259,2.999-.7965c-.44.6571-2.7691.1494-2.999.7965" style="fill: #020202"/>
        <path d="M35.1677,64.0213l-.4,3.1961.6.9957s-.4,1.3342.51,4.4506a13.6615,13.6615,0,0,0,1.7294,1.7125,4.8075,4.8075,0,0,1,1.7294,2.778c.09.677-3.9986,3.5246-3.9986,3.5246L27.19,82.0528,15.9944,64.31l2.919-4.2217,7.4773.3087,4.7384,1.533Z" style="fill: #f7f9f9"/>
        <path d="M16.6641,10.9523a8.4044,8.4044,0,0,0,2.919.7667l-.66.3286a2.7317,2.7317,0,0,0,1.13,0c.35-.1494.63-.3286.92-.1593s-.65.3086-1.5594.4181-2.7491-1.3541-2.7491-1.3541" style="fill: #020202"/>
        <path d="M47.6133,85.1394s1.2795-.6671.95-.8364a1.6968,1.6968,0,0,0-.95,0l.11-.5675a5.0163,5.0163,0,0,1-1.5194.2788c-.23-.11.55-.8662.55-.8662s-1.22.1991-1.23,0a8.7871,8.7871,0,0,1,1-1.4736l-7.3475-4.839v-.3186s-3.4387,1.1152-4.2585,1.9914a7.1183,7.1183,0,0,1,3.5288-2.39c.74-.06.48-.468.48-.468a.9432.9432,0,0,0-.73,0c-.28.1892.25-.7965.25-.7965a1.25,1.25,0,0,0-.69.4779c-.19.3385,0-.7368,0-.7368l-.67-.3286s-4.3885.8961-5.5481,2.18A17.92,17.92,0,0,0,28.94,80.21c-.06.3386,1.27-3.8134,3.4688-4.8787a17.2739,17.2739,0,0,1,4.3485-1.394s0-.7367-.37-.5974l.38-.1393s-.69-1.1351-1.25-1.0455-4.1485-.08-5.9979,2.6983c-.47.8164-.87,1.593-.87,1.593a16.2688,16.2688,0,0,1,1-2.5091,6.3979,6.3979,0,0,1,5.0682-2.37l.84.1095-.23-.697.21-.3086s-1.7194-.2788-1.9993-.2788,1.18-.3485,1.18-.3485v-.687s-6.9176-.468-9.1768-.05A52.1848,52.1848,0,0,1,33.6482,68.9a14.8689,14.8689,0,0,0,2.1592-.1992l-.94-.7865s-9.4567-4.8687-15.8745-3.4151l-1.9993.1793c6.7777-1.9914,1.8694-.5277,2.3892-.697a24.49,24.49,0,0,1,3.8187-.1294c.53,0,4.9982.8961,5.3881.9956s6.2178,2.539,6.2178,2.539V66.3113l.39-.4281v-.9957s-5.3281-2.4393-8.7469-2.25a20.2663,20.2663,0,0,0-5.3881.9161l-1.21.1692A19.483,19.483,0,0,1,24.3714,62.06a31.8782,31.8782,0,0,1,7.5274.8761c.87.3884,3.3588,1.2347,3.3588,1.2347a20.4269,20.4269,0,0,0-3.9986-2.8675A32.6841,32.6841,0,0,1,27.88,59.521a22.8527,22.8527,0,0,1-3.9986-2.6584C23.2618,56.2352,0,53.2582,0,53.2582V85.12Z" style="fill: #231f20"/>
        <path d="M-10.6163,32.9565c-.27-1.4835,10.8962-8.3237,15.5146-5.974C-.65,23.199,2.6691,22.9-.65,23.199s-11.236,2.7182-13.5252,5.745l-.38-1.374S-4.2085,18.49-.57,19.9133c-2.999-1.6727-5.2082-6.3922-16.6442,4.1719-1.6694-.1892,7.0975-12.1372,10.7763-11.1415-6.7577.677-10.1965,1.7922-15.6546,6.6809,3.059-4.72,6.8476-10.5541,9.3568-10.1558-4.8783-.07-7.8973.3982-13.2954,7.0493.7-4.2913,3.2889-10.116,4.9283-11.5C-25.2511,6.6908-28.7,9.24-31.5589,17.2847c-.67,1.4636-10.6863,7.9653-11.7659,15.393l-1,4.2017s4.9983-8.8117,8.697-10.0463c-2.0793,7.1389-3.4888,13.4415-2.999,15.9307,3.5588-6.442,12.2857-19.2761,13.7352-19.4653s-8.7569,11.948-8.477,20.1523c1.8094-2.6784,9.5067-14.487,10.9062-14.935s-9.2968,14.2977-7.9272,23.3185C-28.91,47.3543-19.903,34.5794-19.2632,34.35-20.7927,38.572-27.54,52.64-26.7706,57.629c2.1092-5.4761,11.6659-21.9046,14.6349-22.6613,1.4195-.3385,2.4691-.4879.5,1.2744s-7.7473,1.165-11.7959,24.8917c2.849-7.3281,8.3471-13.4316,10.3264-15.9307a20.9647,20.9647,0,0,1,4.9982-4.4506c.61-.3584,1.5.7866,1.5.7866S-21.6024,55.01-20.4228,68.7207c2.749-7.119,16.0643-19.2661,16.2143-21.3869.76-.9956,2.679,1.3741,2.679,1.3741S-11.446,52.83-14.9947,66.4806c-1.9993,7.7363-2.0493,7.2684-1.6995,9.2,1.16-2.529,3.3989-8.742,3.3989-8.742S-3.7387,57.888-1.7094,53.4971c1.31.7468-5.5381,11.3207-5.768,15.2038s-.5,6.88-.29,8.0251,3.2089-9.0207,4.2885-10.5242S.13,60.1183.16,59.501-4.8383,68.88-3.1489,75.4316l1-1.2346S-.15,63.8521,2.5991,63.2447c.4-.09-3.1889,6.97-2.999,7.8259s-.38,2.39.35,1.9914a18.9917,18.9917,0,0,0,2.6691-3.1364S0,72.6239.5,74.0078s.1,1.2845,1.5,2.8178,3.2389,2.987,4.1385,5.6952,2.859-6.85,3.5388-8.5229,1.6194-1.5035.42-2.9074.77-.906.69-1.3839a18.193,18.193,0,0,0-7.4774-8.5628s6.0679,2.31,8.557,5.6256A42.3147,42.3147,0,0,1,14.9947,71.27c-1.8493-5.6753-.53-8.0749-13.1653-15.2337,1.25-.5277,12.1757,5.3766,13.3053,7.8757a44.4935,44.4935,0,0,1,1.9393,5.4363C15.3946,61.6616,16.3742,55.18.2,50.092l.08-.9957s10.2164-1.384,16.3443,9.3493c-3.4088-7.6666-1.18-13.551-19.1033-14.935l-.39-.6372s14.295-5.984,18.1736,1.9316C7.9972,34.8483,6.2878,34.6193-5.3381,38.96l-1.18-1.294s12.7455-7.9055,19.5131-1.822C8.407,31.7319,6.7776,24.7423-9.4267,33.514" style="fill: #10572c"/>
      </g>
    </g>
  </g>
</svg>
